<svg version="1.1" xmlns="http://www.w3.org/2000/svg">
	<g>
		<path transform="scale(.26458)" d="m1746.2 288.95a86.603 86.603 0 0 0-43.301 11.604l-866.03 500v-0.00391l-0.00391 0.00781a28.868 28.868 0 0 0-14.107 24.441l-0.32031 0.55469v50l0.32031-0.55469a28.868 28.868 0 0 0 14.111 25.555l346.41 200a86.602 86.602 0 0 0 86.604 0l866.03-500a28.868 28.868 0 0 0 14.34-25.18l0.1016 0.17969v-50l-0.1016-0.17578a28.868 28.868 0 0 0-14.332-24.818l-0.0039-0.00782v0.00391a28.868 28.868 0 0 0-0.0039-0.00195l-346.41-200a86.603 86.603 0 0 0-43.303-11.604zm514.8 303.46a86.603 86.603 0 0 0-36.83 11.359l-346.41 200v-0.00391l-0.0039 0.00781a28.868 28.868 0 0 0-14.428 25.012v49.969a28.868 28.868 0 0 0 14.432 25.016l346.41 200a86.603 86.603 0 0 0 86.604 0l346.41-200a28.868 28.868 0 0 0 14.434-25v-50a28.868 28.868 0 0 0-14.434-25l-346.41-200a86.603 86.603 0 0 0-49.773-11.359zm526.09 299.76a86.603 86.603 0 0 0-43.303 11.602l-866.03 500v-0.0039l-0.0039 0.0078a28.868 28.868 0 0 0-14.108 24.441l-0.3203 0.5547v50l0.3203-0.5547a28.868 28.868 0 0 0 14.111 25.555l346.41 200a86.602 86.602 0 0 0 86.604 0l866.03-500a28.868 28.868 0 0 0 14.34-25.18l0.1015 0.1797v-50l-0.1015-0.1758a28.868 28.868 0 0 0-14.332-24.818l-0.0039-0.0078v0.0039a28.868 28.868 0 0 0-0.0039-0.0019l-346.41-200a86.603 86.603 0 0 0-43.301-11.602zm-2087.5 0.47656a86.603 86.603 0 0 0-34.25 11.127l-346.41 200a28.868 28.868 0 0 0-14.434 25.002v49.998a28.868 28.868 0 0 0 14.434 25l1125.8 650a86.603 86.603 0 0 0 86.604 0l346.41-200a28.868 28.868 0 0 0 14.434-25v-50a28.868 28.868 0 0 0-14.434-25l-1125.8-650a86.603 86.603 0 0 0-52.354-11.127zm1043.5 2.9785a86.603 86.603 0 0 0-36.828 11.359l-346.41 200a28.868 28.868 0 0 1-0.0019 0.0019v-0.0058l-0.0059 0.0097a28.868 28.868 0 0 0-14.426 25.01v49.969a28.868 28.868 0 0 0 14.432 25.016l346.41 200a86.603 86.603 0 0 0 86.604 0l346.41-200a28.868 28.868 0 0 0 14.434-25v-50a28.868 28.868 0 0 0-14.434-25l-346.41-200a86.603 86.603 0 0 0-49.773-11.359zm1433.8 258.14a28.868 28.868 0 0 0 0.0019 0v0.0039a28.868 28.868 0 0 0-0.0019-0.0039zm123.43 38.643a86.603 86.603 0 0 0-36.828 11.359l-346.41 200a28.868 28.868 0 0 1-2e-3 0.0019v-0.0058l-0.0058 0.0097a28.868 28.868 0 0 0-14.426 25.01v49.969a28.868 28.868 0 0 0 14.432 25.016l346.41 200a86.603 86.603 0 0 0 86.604 0l346.41-200a28.868 28.868 0 0 0 14.434-25v-50a28.868 28.868 0 0 0-14.434-25l-346.41-200a86.603 86.603 0 0 0-49.773-11.359zm526.09 299.76a86.603 86.603 0 0 0-43.303 11.602l-866.03 500v-0.0039l-0.0039 0.0078a28.868 28.868 0 0 0-14.107 24.441l-0.3203 0.5547v50l0.3203-0.5547a28.868 28.868 0 0 0 14.111 25.555l346.41 200a86.602 86.602 0 0 0 86.604 0l866.03-500a28.868 28.868 0 0 0 14.34-25.18l0.1016 0.1797v-50l-0.1016-0.1758a28.868 28.868 0 0 0-14.332-24.818l-0.0039-0.0078v0.0039a28.868 28.868 0 0 0-0.0039-0.0019l-346.41-200a86.603 86.603 0 0 0-43.301-11.602zm-1044 3.4551a86.603 86.603 0 0 0-36.828 11.359l-346.41 200a28.868 28.868 0 0 1-2e-3 0.0019v-0.0058l-0.0058 0.0097a28.868 28.868 0 0 0-14.426 24.994v49.984a28.868 28.868 0 0 0 14.432 25.016l346.41 200a86.603 86.603 0 0 0 86.604 0l346.41-200a28.868 28.868 0 0 0 14.434-25v-50a28.868 28.868 0 0 0-14.434-25l-346.41-200a86.603 86.603 0 0 0-49.773-11.359zm-783.66 147.02a86.603 86.603 0 0 0-34.248 11.127l-346.41 200a28.868 28.868 0 0 0-14.434 25.002v49.998a28.868 28.868 0 0 0 14.434 25l1125.8 650a86.603 86.603 0 0 0 86.604 0l346.41-200a28.868 28.868 0 0 0 14.434-25v-50a28.868 28.868 0 0 0-14.434-25l-1125.8-650a86.603 86.603 0 0 0-52.354-11.127z" fill-opacity=".31858"/>
		<g fill="#999">
			<path d="m1050.6 341.89a22.914 22.914 0 0 0-11.457 3.0696l-229.14 132.29v-13.23l-3.8184 6.6156v13.229l0.0848-0.14677a7.6379 7.6379 0 0 0 3.7336 6.7614l91.654 52.917a22.914 22.914 0 0 0 22.914 0l229.14-132.29a7.6379 7.6379 0 0 0 3.7941-6.6621l0.027 0.0476v-13.229l-3.8199-6.6151v13.23a7.6379 7.6379 0 0 0 0-3e-3l-91.654-52.917a22.914 22.914 0 0 0-11.457-3.0696z"/>
			<path d="m911.37 262.57a22.914 22.914 0 0 0-9.7446 3.0055l-91.654 52.917v-13.23l-3.8184 6.6156v13.225a7.6379 7.6379 0 0 0 3.8184 6.6187l91.654 52.917a22.914 22.914 0 0 0 22.914 0l91.654-52.917a7.6379 7.6379 0 0 0 3.8189-6.6146v-13.229l-3.8189-6.6151v13.23l-91.654-52.917a22.914 22.914 0 0 0-13.169-3.0055z"/>
			<path d="m566.98 381.7a22.914 22.914 0 0 0-9.0614 2.9445l-91.654 52.917v-13.229l-3.8189 6.6151v13.229a7.6379 7.6379 0 0 0 3.8189 6.6146l297.88 171.98a22.914 22.914 0 0 0 22.914 0l91.654-52.917a7.6379 7.6379 0 0 0 3.8189-6.6146v-13.229l-3.8194-6.6151v13.229l-297.88-171.98a22.914 22.914 0 0 0-13.852-2.9445z"/>
		</g>
		<path d="m878.71 543.39-297.88-171.98a22.914 22.914 0 0 0-22.914 0l-91.654 52.917a7.6379 7.6379 0 0 0 0 13.229l297.88 171.98a22.914 22.914 0 0 0 22.914 0l91.654-52.917a7.6379 7.6379 0 0 0 0-13.229z" fill="#e6e6e6"/>
		<g>
			<a href="javascript:void(0)" id="cr">
				<path id="CR" d="m901.62 371.41-91.654-52.917a7.6379 7.6379 0 0 1 0-13.229l91.654-52.917a22.914 22.914 0 0 1 22.914 0l91.654 52.917a7.6379 7.6379 0 0 1 0 13.229l-91.654 52.917a22.914 22.914 0 0 1-22.914 0z" fill="#e6e6e6"/>
			</a>
			<path d="m774.32 342.8a22.914 22.914 0 0 0-9.7446 3.0055l-91.654 52.917v-13.23l-3.8184 6.6156v13.225a7.6379 7.6379 0 0 0 3.8184 6.6187l91.654 52.917a22.914 22.914 0 0 0 22.914 0l91.654-52.917a7.6379 7.6379 0 0 0 3.8189-6.6146v-13.229l-3.8189-6.6151v13.23l-91.654-52.917a22.914 22.914 0 0 0-13.169-3.0055z" fill="#999"/>
			<path d="m764.58 451.64-91.654-52.917a7.6379 7.6379 0 0 1 0-13.229l91.654-52.917a22.914 22.914 0 0 1 22.914 0l91.654 52.917a7.6379 7.6379 0 0 1 0 13.229l-91.654 52.917a22.914 22.914 0 0 1-22.914 0z" fill="#e6e6e6"/>
		</g>
		<path d="m223.28 183.26a22.914 22.914 0 0 0-9.0614 2.9445l-91.654 52.917v-13.229l-3.8189 6.6151v13.229a7.6379 7.6379 0 0 0 3.8189 6.6146l297.88 171.98a22.914 22.914 0 0 0 22.914 0l91.654-52.917a7.6379 7.6379 0 0 0 3.8189-6.6146v-13.229l-3.8194-6.6151v13.229l-297.88-171.98a22.914 22.914 0 0 0-13.852-2.9445z" fill="#999"/>
		<path d="m535 344.96-297.88-171.98a22.914 22.914 0 0 0-22.914 0l-91.654 52.917a7.6379 7.6379 0 0 0 0 13.229l297.88 171.98a22.914 22.914 0 0 0 22.914 0l91.654-52.917a7.6379 7.6379 0 0 0 0-13.229z" fill="#e6e6e6"/>
		<g>
			<a href="javascript:void(0)" id="cs">
				<path id="CS" d="m809.97 477.25 91.654 52.917a22.914 22.914 0 0 0 22.914 0l229.14-132.29a7.6379 7.6379 0 0 0 0-13.229l-91.654-52.917a22.914 22.914 0 0 0-22.914 0l-229.14 132.29a7.6379 7.6379 0 0 0 0 13.229z" fill="#e6e6e6"/>
			</a>
			<path d="m775.6 183.14a22.914 22.914 0 0 0-11.457 3.0696l-229.14 132.29v-13.23l-3.8184 6.6156v13.229l0.0847-0.14677a7.6379 7.6379 0 0 0 3.7336 6.7614l91.654 52.917a22.914 22.914 0 0 0 22.914 0l229.14-132.29a7.6379 7.6379 0 0 0 3.7941-6.6621l0.027 0.0476v-13.229l-3.8199-6.6151v13.23a7.6379 7.6379 0 0 0-3e-3 -3e-3l-91.654-52.917a22.914 22.914 0 0 0-11.457-3.0696z" fill="#999"/>
			<path d="m636.4 103.82a22.914 22.914 0 0 0-9.7446 3.0055l-91.654 52.917v-13.23l-3.8184 6.6156v13.225a7.6379 7.6379 0 0 0 3.8184 6.6187l91.654 52.917a22.914 22.914 0 0 0 22.914 0l91.654-52.917a7.6379 7.6379 0 0 0 3.8189-6.6146v-13.229l-3.8189-6.6151v13.23l-91.654-52.917a22.914 22.914 0 0 0-13.169-3.0055z" fill="#999"/>
			<path d="m626.66 212.66-91.654-52.917a7.6379 7.6379 0 0 1 0-13.229l91.654-52.917a22.914 22.914 0 0 1 22.914 0l91.654 52.917a7.6379 7.6379 0 0 1 0 13.229l-91.654 52.917a22.914 22.914 0 0 1-22.914 0z" fill="#e6e6e6"/>
			<path d="m499.36 184.05a22.914 22.914 0 0 0-9.7446 3.0055l-91.654 52.917v-13.23l-3.8184 6.6156v13.225a7.6379 7.6379 0 0 0 3.8184 6.6187l91.654 52.917a22.914 22.914 0 0 0 22.914 0l91.654-52.917a7.6379 7.6379 0 0 0 3.8189-6.6146v-13.229l-3.8189-6.6151v13.23l-91.654-52.917a22.914 22.914 0 0 0-13.169-3.0055z" fill="#999"/>
			<path d="m489.61 292.89-91.654-52.917a7.6379 7.6379 0 0 1 0-13.229l91.654-52.917a22.914 22.914 0 0 1 22.914 0l91.654 52.917a7.6379 7.6379 0 0 1 0 13.229l-91.654 52.917a22.914 22.914 0 0 1-22.914 0z" fill="#e6e6e6"/>
			<path d="m535 318.5 91.654 52.917a22.914 22.914 0 0 0 22.914 0l229.14-132.29a7.6379 7.6379 0 0 0 0-13.229l-91.654-52.917a22.914 22.914 0 0 0-22.914 0l-229.14 132.29a7.6379 7.6379 0 0 0 0 13.229z" fill="#e6e6e6"/>
			<path d="m500.2 23.535a22.914 22.914 0 0 0-11.457 3.0696l-229.14 132.29v-13.23l-3.8184 6.6156v13.229l0.0847-0.14676a7.6379 7.6379 0 0 0 3.7336 6.7613l91.654 52.917a22.914 22.914 0 0 0 22.914 0l229.14-132.29a7.6379 7.6379 0 0 0 3.7941-6.6621l0.027 0.0475v-13.229l-3.8199-6.6151v13.23a7.6379 7.6379 0 0 0 0-3e-3l-91.654-52.917a22.914 22.914 0 0 0-11.457-3.0696z" fill="#999"/>
			<path d="m259.6 158.9 91.654 52.917a22.914 22.914 0 0 0 22.914 0l229.14-132.29a7.6379 7.6379 0 0 0 0-13.229l-91.654-52.917a22.914 22.914 0 0 0-22.914 0l-229.14 132.29a7.6379 7.6379 0 0 0 0 13.229z" fill="#e6e6e6"/>
		</g>
		<g transform="translate(111.1 -5.6177)" fill-opacity=".38053" stroke-width=".26458">
			<g transform="matrix(.86918 -.49449 1.0075 .57732 0 0)" aria-label="01 Customer  Segments">
				<path d="m8.318 799.13q2.0547 0 3.2122 1.4662 1.3794 1.7363 1.3794 5.7588 0 4.0129-1.3891 5.7685-1.1479 1.4469-3.2026 1.4469-2.0643 0-3.328-1.582-1.2637-1.5916-1.2637-5.6624 0-3.9936 1.3891-5.7492 1.1479-1.447 3.2026-1.447zm0 2.2476q-0.49196 0-0.87781 0.31833-0.38585 0.30868-0.59807 1.119-0.27974 1.0514-0.27974 3.5402 0 2.4888 0.2508 3.4244 0.2508 0.92604 0.62701 1.2347 0.38585 0.30868 0.87781 0.30868 0.49196 0 0.87781-0.30868 0.38585-0.31833 0.59807-1.1286 0.27974-1.0418 0.27974-3.5306 0-2.4887-0.2508-3.4148-0.2508-0.93569-0.63666-1.2444-0.37621-0.31833-0.86817-0.31833z"/>
				<path d="m21.659 813.33h-2.7106v-10.215q-1.4855 1.3891-3.5016 2.0547v-2.4598q1.0611-0.34727 2.3055-1.3119 1.2444-0.97427 1.7074-2.2669h2.1994z"/>
				<path d="m40.845 808.13 2.7685 0.87781q-0.63666 2.3151-2.1222 3.4437-1.4759 1.119-3.7524 1.119-2.8167 0-4.6302-1.9196-1.8135-1.9293-1.8135-5.2669 0-3.5305 1.8231-5.4791 1.8231-1.9582 4.7942-1.9582 2.5949 0 4.2154 1.5338 0.96463 0.90676 1.4469 2.6045l-2.8264 0.67524q-0.2508-1.0997-1.0514-1.7363-0.791-0.63665-1.9293-0.63665-1.5723 0-2.5563 1.1286-0.97428 1.1286-0.97428 3.6559 0 2.6817 0.96463 3.8199 0.96463 1.1383 2.508 1.1383 1.1383 0 1.9582-0.72347 0.81994-0.72348 1.1768-2.2765z"/>
				<path d="m52.787 813.33v-1.5338q-0.55948 0.81994-1.4759 1.2926-0.90675 0.47267-1.9196 0.47267-1.0322 0-1.8521-0.45337-0.81994-0.45338-1.1865-1.2733-0.36656-0.81994-0.36656-2.2669v-6.4823h2.7106v4.7074q0 2.1608 0.1447 2.6527 0.15434 0.48232 0.54984 0.7717 0.3955 0.27975 1.0032 0.27975 0.69453 0 1.2444-0.37621 0.54984-0.38585 0.75241-0.94534 0.20257-0.56913 0.20257-2.7685v-4.3215h2.7106v10.244z"/>
				<path d="m57.157 810.4 2.7203-0.41479q0.17363 0.79099 0.70418 1.2058 0.53055 0.40515 1.4855 0.40515 1.0514 0 1.582-0.38586 0.35691-0.27009 0.35691-0.72347 0-0.30868-0.19293-0.51125-0.20257-0.19293-0.90675-0.35691-3.2797-0.72348-4.1576-1.3216-1.2154-0.82958-1.2154-2.3055 0-1.3312 1.0514-2.2379 1.0514-0.90675 3.2604-0.90675 2.1029 0 3.1254 0.68489 1.0225 0.68488 1.4084 2.0257l-2.5563 0.47267q-0.16399-0.59807-0.62701-0.9164-0.45338-0.31833-1.3022-0.31833-1.0707 0-1.5338 0.29904-0.30868 0.21221-0.30868 0.54984 0 0.28938 0.2701 0.49196 0.36656 0.27009 2.5273 0.76205 2.1704 0.49196 3.0289 1.2058 0.84887 0.72347 0.84887 2.0161 0 1.4084-1.1768 2.4212-1.1768 1.0129-3.4823 1.0129-2.0932 0-3.3183-0.84887-1.2154-0.84887-1.5916-2.3055z"/>
				<path d="m73.797 803.08v2.1608h-1.8521v4.1286q0 1.254 0.04823 1.4662 0.05788 0.20257 0.24116 0.33762 0.19293 0.13505 0.46302 0.13505 0.3762 0 1.09-0.26045l0.23151 2.1029q-0.94534 0.40514-2.1415 0.40514-0.73312 0-1.3215-0.24116-0.58842-0.2508-0.86817-0.63665-0.2701-0.3955-0.3762-1.0611-0.08682-0.47267-0.08682-1.91v-4.4662h-1.2444v-2.1608h1.2444v-2.0354l2.7203-1.582v3.6174z"/>
				<path d="m75.051 808.06q0-1.3505 0.66559-2.6142 0.66559-1.2637 1.881-1.9292 1.2251-0.6656 2.7299-0.6656 2.3248 0 3.8103 1.5145 1.4855 1.5048 1.4855 3.8103 0 2.3248-1.5048 3.8585-1.4952 1.5241-3.7717 1.5241-1.4084 0-2.6913-0.63665-1.2733-0.63666-1.9389-1.8617-0.66559-1.2347-0.66559-3zm2.7781 0.14469q0 1.5241 0.72347 2.3344 0.72347 0.81029 1.7846 0.81029 1.0611 0 1.7749-0.81029 0.72347-0.81028 0.72347-2.3537 0-1.5048-0.72347-2.3151-0.71383-0.81029-1.7749-0.81029-1.0611 0-1.7846 0.81029t-0.72347 2.3344z"/>
				<path d="m87.543 803.08h2.4984v1.3987q1.3408-1.6302 3.1929-1.6302 0.98392 0 1.7074 0.40515 0.72347 0.40514 1.1865 1.2251 0.67524-0.81993 1.4566-1.2251 0.78135-0.40515 1.6688-0.40515 1.1286 0 1.91 0.46302 0.78135 0.45338 1.1672 1.3408 0.27975 0.65594 0.27975 2.1222v6.5498h-2.7106v-5.8553q0-1.5241-0.27974-1.9678-0.3762-0.57878-1.1576-0.57878-0.56913 0-1.0707 0.34727t-0.72347 1.0225q-0.22186 0.66559-0.22186 2.1125v4.9196h-2.7106v-5.6141q0-1.4952-0.14469-1.9293-0.1447-0.43408-0.45338-0.6463-0.29904-0.21222-0.81993-0.21222-0.62701 0-1.1286 0.33762t-0.72347 0.97428q-0.21222 0.63665-0.21222 2.1125v4.9775h-2.7106z"/>
				<path d="m111.24 810.07 2.701 0.45337q-0.5209 1.4855-1.6495 2.2669-1.119 0.7717-2.8071 0.7717-2.672 0-3.955-1.746-1.0129-1.3987-1.0129-3.5305 0-2.5466 1.3312-3.9839 1.3312-1.4469 3.3666-1.4469 2.2862 0 3.6077 1.5145 1.3215 1.5048 1.2637 4.6206h-6.791q0.0289 1.2058 0.65594 1.881 0.62701 0.66559 1.5627 0.66559 0.63666 0 1.0707-0.34726 0.43408-0.34727 0.65595-1.119zm0.15434-2.7396q-0.0289-1.1768-0.60772-1.7846-0.57877-0.61737-1.4084-0.61737-0.88745 0-1.4662 0.6463-0.57878 0.64631-0.56913 1.7556z"/>
				<path d="m118.89 813.33h-2.7106v-10.244h2.5177v1.4566q0.6463-1.0322 1.1576-1.3601 0.5209-0.32798 1.1768-0.32798 0.92604 0 1.7846 0.51125l-0.83922 2.3634q-0.68489-0.44373-1.2733-0.44373-0.56913 0-0.96463 0.31832-0.3955 0.30868-0.62701 1.1286-0.22187 0.81993-0.22187 3.4341z"/>
				<path d="m9.0994 833.42 2.7781-0.27009q0.2508 1.3987 1.0129 2.0546 0.7717 0.65595 2.074 0.65595 1.3794 0 2.074-0.57877 0.70418-0.58843 0.70418-1.3698 0-0.50161-0.29904-0.84887-0.28939-0.35691-1.0225-0.61736-0.50161-0.17364-2.2862-0.61737-2.2958-0.56913-3.2219-1.3987-1.3022-1.1672-1.3022-2.8456 0-1.0804 0.60772-2.0161 0.61736-0.94533 1.7653-1.4373 1.1576-0.49196 2.7878-0.49196 2.6624 0 4.0032 1.1672 1.3505 1.1672 1.418 3.1158l-2.8553 0.1254q-0.18328-1.09-0.791-1.5627-0.59807-0.48231-1.8039-0.48231-1.2444 0-1.9486 0.51125-0.45338 0.32797-0.45338 0.87781 0 0.50161 0.42444 0.85852 0.54019 0.45338 2.6238 0.94534 2.0836 0.49196 3.0772 1.0225 1.0032 0.5209 1.5627 1.4373 0.56913 0.90675 0.56913 2.2476 0 1.2154-0.67524 2.2765t-1.91 1.582q-1.2347 0.51125-3.0772 0.51125-2.6817 0-4.119-1.2347-1.4373-1.2444-1.717-3.6174z"/>
				<path d="m28.913 834.76 2.701 0.45337q-0.5209 1.4855-1.6495 2.2669-1.119 0.7717-2.8071 0.7717-2.672 0-3.955-1.746-1.0129-1.3987-1.0129-3.5305 0-2.5466 1.3312-3.9839 1.3312-1.4469 3.3666-1.4469 2.2862 0 3.6077 1.5145 1.3215 1.5048 1.2637 4.6206h-6.791q0.02894 1.2058 0.65595 1.881 0.62701 0.66559 1.5627 0.66559 0.63666 0 1.0707-0.34727 0.43408-0.34726 0.65595-1.119zm0.15434-2.7396q-0.02894-1.1768-0.60772-1.7846-0.57878-0.61737-1.4084-0.61737-0.88746 0-1.4662 0.6463-0.57878 0.64631-0.56913 1.7556z"/>
				<path d="m33.717 838.7 3.0965 0.37621q0.07717 0.54019 0.35691 0.74276 0.38585 0.28939 1.2154 0.28939 1.0611 0 1.5916-0.31833 0.35691-0.21222 0.54019-0.68488 0.1254-0.33762 0.1254-1.2444v-1.4952q-1.2154 1.6592-3.0675 1.6592-2.0643 0-3.2701-1.746-0.94534-1.3794-0.94534-3.4341 0-2.5756 1.2347-3.9357 1.2444-1.3601 3.0868-1.3601 1.9003 0 3.135 1.6688v-1.4373h2.537v9.1929q0 1.8135-0.29904 2.7106-0.29904 0.89711-0.83923 1.4084t-1.4469 0.80064q-0.8971 0.28939-2.2765 0.28939-2.6045 0-3.6945-0.8971-1.09-0.88746-1.09-2.2572 0-0.13505 0.0096-0.32798zm2.4212-6.0096q0 1.6302 0.62701 2.3923 0.63666 0.75241 1.5627 0.75241 0.99357 0 1.6785-0.7717 0.68489-0.78135 0.68489-2.3055 0-1.5916-0.65595-2.3633-0.65595-0.77171-1.6592-0.77171-0.97428 0-1.6109 0.76206-0.62701 0.75241-0.62701 2.3055z"/>
				<path d="m45.832 827.78h2.4984v1.3987q1.3408-1.6302 3.1929-1.6302 0.98392 0 1.7074 0.40515 0.72347 0.40514 1.1865 1.2251 0.67524-0.81993 1.4566-1.2251 0.78135-0.40515 1.6688-0.40515 1.1286 0 1.91 0.46302 0.78135 0.45338 1.1672 1.3408 0.27974 0.65594 0.27974 2.1222v6.5498h-2.7106v-5.8553q0-1.5241-0.27974-1.9678-0.3762-0.57878-1.1576-0.57878-0.56913 0-1.0707 0.34727t-0.72347 1.0225q-0.22186 0.66559-0.22186 2.1125v4.9196h-2.7106v-5.6141q0-1.4952-0.14469-1.9293-0.1447-0.43408-0.45338-0.6463-0.29904-0.21222-0.81993-0.21222-0.62701 0-1.1286 0.33762t-0.72347 0.97428q-0.21222 0.63665-0.21222 2.1125v4.9775h-2.7106z"/>
				<path d="m69.533 834.76 2.701 0.45337q-0.5209 1.4855-1.6495 2.2669-1.119 0.7717-2.8071 0.7717-2.672 0-3.955-1.746-1.0129-1.3987-1.0129-3.5305 0-2.5466 1.3312-3.9839 1.3312-1.4469 3.3666-1.4469 2.2862 0 3.6077 1.5145 1.3215 1.5048 1.2637 4.6206h-6.791q0.02894 1.2058 0.65595 1.881 0.62701 0.66559 1.5627 0.66559 0.63666 0 1.0707-0.34727 0.43408-0.34726 0.65595-1.119zm0.15434-2.7396q-0.02894-1.1768-0.60772-1.7846-0.57878-0.61737-1.4084-0.61737-0.88746 0-1.4662 0.6463-0.57878 0.64631-0.56913 1.7556z"/>
				<path d="m83.906 838.02h-2.7106v-5.2283q0-1.6592-0.17363-2.1415-0.17363-0.49196-0.56913-0.76206-0.38585-0.2701-0.93569-0.2701-0.70418 0-1.2637 0.38585-0.55948 0.38586-0.7717 1.0225-0.20257 0.63666-0.20257 2.3537v4.6399h-2.7106v-10.244h2.5177v1.5048q1.3408-1.7363 3.3762-1.7363 0.8971 0 1.6399 0.32798 0.74276 0.31832 1.119 0.81993 0.38585 0.50161 0.53055 1.1383 0.15434 0.63666 0.15434 1.8232z"/>
				<path d="m91.353 827.78v2.1608h-1.8521v4.1286q0 1.254 0.04823 1.4662 0.05788 0.20257 0.24116 0.33762 0.19292 0.13505 0.46302 0.13505 0.3762 0 1.09-0.26045l0.23151 2.1029q-0.94534 0.40514-2.1415 0.40514-0.73312 0-1.3215-0.24116-0.58842-0.2508-0.86817-0.63665-0.2701-0.3955-0.3762-1.0611-0.08682-0.47267-0.08682-1.91v-4.4662h-1.2444v-2.1608h1.2444v-2.0354l2.7203-1.582v3.6174z"/>
				<path d="m92.279 835.1 2.7203-0.41479q0.17363 0.79099 0.70418 1.2058 0.53055 0.40515 1.4855 0.40515 1.0514 0 1.582-0.38586 0.35691-0.27009 0.35691-0.72347 0-0.30868-0.19293-0.51125-0.20257-0.19293-0.90675-0.35691-3.2797-0.72348-4.1576-1.3216-1.2154-0.82958-1.2154-2.3055 0-1.3312 1.0514-2.2379 1.0514-0.90675 3.2604-0.90675 2.1029 0 3.1254 0.68489 1.0225 0.68488 1.4084 2.0257l-2.5563 0.47267q-0.16399-0.59807-0.62701-0.9164-0.45338-0.31833-1.3022-0.31833-1.0707 0-1.5338 0.29904-0.30868 0.21221-0.30868 0.54984 0 0.28938 0.2701 0.49196 0.36656 0.27009 2.5273 0.76205 2.1704 0.49196 3.0289 1.2058 0.84887 0.72347 0.84887 2.0161 0 1.4084-1.1768 2.4212-1.1768 1.0129-3.4823 1.0129-2.0932 0-3.3183-0.84887-1.2154-0.84887-1.5916-2.3055z"/>
			</g>
			<g transform="matrix(.86918 -.49449 1.0075 .57732 0 0)" aria-label="02 Value  Propositions">
				<path d="m14.819 509.25q2.0547 0 3.2122 1.4662 1.3794 1.7363 1.3794 5.7588 0 4.0128-1.3891 5.7685-1.1479 1.4469-3.2026 1.4469-2.0643 0-3.328-1.582-1.2637-1.5916-1.2637-5.6624 0-3.9936 1.3891-5.7492 1.1479-1.4469 3.2026-1.4469zm0 2.2476q-0.49196 0-0.87781 0.31833-0.38585 0.30868-0.59807 1.119-0.27974 1.0514-0.27974 3.5402 0 2.4887 0.2508 3.4244 0.2508 0.92604 0.62701 1.2347 0.38585 0.30868 0.87781 0.30868 0.49196 0 0.87781-0.30868 0.38585-0.31832 0.59807-1.1286 0.27974-1.0418 0.27974-3.5305 0-2.4888-0.2508-3.4148-0.2508-0.93569-0.63666-1.2444-0.37621-0.31833-0.86817-0.31833z"/>
				<path d="m30.379 520.93v2.5177h-9.5016q0.15434-1.4276 0.92604-2.701 0.7717-1.283 3.0482-3.3955 1.8328-1.7074 2.2476-2.3151 0.55948-0.83923 0.55948-1.6592 0-0.90675-0.49196-1.3891-0.48232-0.49196-1.3408-0.49196-0.84887 0-1.3505 0.51125-0.50161 0.51126-0.57878 1.6978l-2.701-0.2701q0.24116-2.2379 1.5145-3.2122 1.2733-0.97427 3.1833-0.97427 2.0932 0 3.2894 1.1286 1.1961 1.1286 1.1961 2.8071 0 0.95498-0.34727 1.8232-0.33762 0.85852-1.0804 1.8039-0.49196 0.627-1.7749 1.8038-1.283 1.1768-1.6302 1.5627-0.33762 0.38585-0.54984 0.75241z"/>
				<path d="m41.906 523.45-5.0547-14.141h3.0965l3.5788 10.466 3.463-10.466h3.0289l-5.0643 14.141z"/>
				<path d="m52.391 516.33-2.4598-0.44373q0.41479-1.4855 1.4277-2.1994 1.0129-0.71383 3.0096-0.71383 1.8135 0 2.701 0.43409 0.88746 0.42443 1.2444 1.09 0.36656 0.65594 0.36656 2.4212l-0.02894 3.164q0 1.3505 0.1254 1.9968 0.13505 0.63665 0.49196 1.3698h-2.6817q-0.10611-0.27009-0.26045-0.80064-0.06752-0.24116-0.09646-0.31833-0.69453 0.67524-1.4855 1.0129-0.791 0.33762-1.6881 0.33762-1.582 0-2.4984-0.85852-0.90675-0.85852-0.90675-2.1704 0-0.86817 0.41479-1.5434 0.41479-0.68488 1.1576-1.0418 0.75241-0.36656 2.1608-0.63665 1.9003-0.35691 2.6334-0.6656v-0.27009q0-0.78135-0.38585-1.1093-0.38585-0.33762-1.4566-0.33762-0.72347 0-1.1286 0.28939-0.40514 0.27975-0.65595 0.99357zm3.627 2.1994q-0.5209 0.17363-1.6495 0.41479-1.1286 0.24115-1.4759 0.47266-0.53055 0.37621-0.53055 0.95499 0 0.56913 0.42444 0.98392 0.42444 0.41479 1.0804 0.41479 0.73312 0 1.3987-0.48232 0.49196-0.36656 0.6463-0.8971 0.10611-0.34727 0.10611-1.3215z"/>
				<path d="m61.353 523.45v-14.141h2.7106v14.141z"/>
				<path d="m73.584 523.45v-1.5338q-0.55948 0.81994-1.4759 1.2926-0.90675 0.47266-1.9196 0.47266-1.0322 0-1.8521-0.45337-0.81993-0.45338-1.1865-1.2733-0.36656-0.81994-0.36656-2.2669v-6.4823h2.7106v4.7074q0 2.1608 0.14469 2.6527 0.15434 0.48232 0.54984 0.77171 0.3955 0.27974 1.0032 0.27974 0.69453 0 1.2444-0.37621 0.54984-0.38585 0.75241-0.94533 0.20257-0.56913 0.20257-2.7685v-4.3215h2.7106v10.244z"/>
				<path d="m84.842 520.19 2.701 0.45337q-0.5209 1.4855-1.6495 2.2669-1.119 0.7717-2.8071 0.7717-2.672 0-3.955-1.746-1.0129-1.3987-1.0129-3.5306 0-2.5466 1.3312-3.9839 1.3312-1.447 3.3666-1.447 2.2862 0 3.6077 1.5145 1.3215 1.5048 1.2637 4.6206h-6.791q0.02894 1.2058 0.65595 1.881 0.62701 0.66559 1.5627 0.66559 0.63666 0 1.0707-0.34726 0.43408-0.34727 0.65595-1.119zm0.15434-2.7396q-0.02894-1.1768-0.60772-1.7846-0.57878-0.61737-1.4084-0.61737-0.88746 0-1.4662 0.64631-0.57878 0.6463-0.56913 1.7556z"/>
				<path d="m16.324 548.15v-14.141h4.582q2.6045 0 3.3955 0.21222 1.2154 0.31833 2.0354 1.3891 0.81993 1.0611 0.81993 2.7492 0 1.3022-0.47267 2.1897t-1.2058 1.3987q-0.72347 0.50161-1.4759 0.66559-1.0225 0.20257-2.9614 0.20257h-1.8617v5.3344zm2.8553-11.749v4.0129h1.5627q1.6881 0 2.2572-0.22187 0.56913-0.22186 0.88746-0.69453 0.32797-0.47267 0.32797-1.0997 0-0.7717-0.45338-1.2733-0.45338-0.5016-1.1479-0.627-0.51125-0.0965-2.0547-0.0965z"/>
				<path d="m32.076 548.15h-2.7106v-10.244h2.5177v1.4566q0.6463-1.0322 1.1576-1.3601 0.5209-0.32798 1.1768-0.32798 0.92604 0 1.7846 0.51126l-0.83923 2.3633q-0.68489-0.44373-1.2733-0.44373-0.56913 0-0.96463 0.31833-0.3955 0.30868-0.62701 1.1286-0.22186 0.81994-0.22186 3.4341z"/>
				<path d="m36.543 542.88q0-1.3505 0.66559-2.6142 0.66559-1.2637 1.881-1.9292 1.2251-0.6656 2.7299-0.6656 2.3248 0 3.8103 1.5145 1.4855 1.5048 1.4855 3.8103 0 2.3248-1.5048 3.8585-1.4952 1.5241-3.7717 1.5241-1.4084 0-2.6913-0.63665-1.2733-0.63666-1.9389-1.8617-0.66559-1.2347-0.66559-3zm2.7781 0.14469q0 1.5241 0.72347 2.3344 0.72347 0.81028 1.7846 0.81028 1.0611 0 1.7749-0.81028 0.72347-0.81029 0.72347-2.3537 0-1.5048-0.72347-2.3151-0.71383-0.81029-1.7749-0.81029-1.0611 0-1.7846 0.81029-0.72347 0.81029-0.72347 2.3344z"/>
				<path d="m49.16 537.9h2.5273v1.5048q0.49196-0.7717 1.3312-1.254 0.83923-0.48232 1.8617-0.48232 1.7846 0 3.0289 1.3987 1.2444 1.3987 1.2444 3.8971 0 2.5659-1.254 3.9936-1.254 1.418-3.0386 1.418-0.84887 0-1.5434-0.33762-0.68489-0.33762-1.4469-1.1576v5.1608h-2.7106zm2.6817 4.9486q0 1.7267 0.68489 2.5563 0.68489 0.81993 1.6688 0.81993 0.94534 0 1.5723-0.75241 0.62701-0.76206 0.62701-2.4887 0-1.6109-0.6463-2.3923t-1.6013-0.78135q-0.99357 0-1.6495 0.7717-0.65595 0.76206-0.65595 2.2669z"/>
				<path d="m60.678 542.88q0-1.3505 0.66559-2.6142 0.66559-1.2637 1.881-1.9292 1.2251-0.6656 2.7299-0.6656 2.3248 0 3.8103 1.5145 1.4855 1.5048 1.4855 3.8103 0 2.3248-1.5048 3.8585-1.4952 1.5241-3.7717 1.5241-1.4084 0-2.6913-0.63665-1.2733-0.63666-1.9389-1.8617-0.66559-1.2347-0.66559-3zm2.7781 0.14469q0 1.5241 0.72347 2.3344 0.72347 0.81028 1.7846 0.81028t1.7749-0.81028q0.72347-0.81029 0.72347-2.3537 0-1.5048-0.72347-2.3151-0.71382-0.81029-1.7749-0.81029t-1.7846 0.81029q-0.72347 0.81029-0.72347 2.3344z"/>
				<path d="m72.417 545.22 2.7203-0.41479q0.17363 0.79099 0.70418 1.2058 0.53055 0.40515 1.4855 0.40515 1.0514 0 1.582-0.38585 0.35691-0.2701 0.35691-0.72348 0-0.30868-0.19293-0.51125-0.20257-0.19293-0.90675-0.35691-3.2797-0.72347-4.1576-1.3215-1.2154-0.82958-1.2154-2.3055 0-1.3312 1.0514-2.2379 1.0514-0.90675 3.2604-0.90675 2.1029 0 3.1254 0.68489 1.0225 0.68489 1.4084 2.0257l-2.5563 0.47267q-0.16399-0.59807-0.62701-0.9164-0.45338-0.31833-1.3022-0.31833-1.0707 0-1.5338 0.29904-0.30868 0.21222-0.30868 0.54984 0 0.28939 0.2701 0.49196 0.36656 0.27009 2.5273 0.76205 2.1704 0.49196 3.0289 1.2058 0.84887 0.72347 0.84887 2.0161 0 1.4084-1.1768 2.4212t-3.4823 1.0129q-2.0932 0-3.3183-0.84887-1.2154-0.84887-1.5916-2.3055z"/>
				<path d="m84.359 536.51v-2.508h2.7106v2.508zm0 11.633v-10.244h2.7106v10.244z"/>
				<path d="m94.546 537.9v2.1608h-1.8521v4.1286q0 1.254 0.04823 1.4662 0.05788 0.20257 0.24116 0.33762 0.19293 0.13505 0.46302 0.13505 0.3762 0 1.09-0.26045l0.23151 2.1029q-0.94534 0.40514-2.1415 0.40514-0.73312 0-1.3215-0.24115-0.58842-0.25081-0.86817-0.63666-0.2701-0.3955-0.37621-1.0611-0.08682-0.47267-0.08682-1.91v-4.4662h-1.2444v-2.1608h1.2444v-2.0354l2.7203-1.582v3.6174z"/>
				<path d="m96.427 536.51v-2.508h2.7106v2.508zm0 11.633v-10.244h2.7106v10.244z"/>
				<path d="m101.29 542.88q0-1.3505 0.6656-2.6142 0.66559-1.2637 1.881-1.9292 1.2251-0.6656 2.7299-0.6656 2.3248 0 3.8103 1.5145 1.4855 1.5048 1.4855 3.8103 0 2.3248-1.5048 3.8585-1.4952 1.5241-3.7717 1.5241-1.4084 0-2.6913-0.63665-1.2733-0.63666-1.9389-1.8617-0.6656-1.2347-0.6656-3zm2.7781 0.14469q0 1.5241 0.72348 2.3344 0.72347 0.81028 1.7846 0.81028t1.7749-0.81028q0.72347-0.81029 0.72347-2.3537 0-1.5048-0.72347-2.3151-0.71383-0.81029-1.7749-0.81029t-1.7846 0.81029q-0.72348 0.81029-0.72348 2.3344z"/>
				<path d="m123.3 548.15h-2.7106v-5.2283q0-1.6592-0.17363-2.1415-0.17363-0.49196-0.56913-0.76206-0.38585-0.2701-0.93569-0.2701-0.70418 0-1.2637 0.38586-0.55949 0.38585-0.77171 1.0225-0.20257 0.63666-0.20257 2.3537v4.6399h-2.7106v-10.244h2.5177v1.5048q1.3408-1.7363 3.3762-1.7363 0.8971 0 1.6399 0.32798 0.74276 0.31832 1.119 0.81993 0.38585 0.50161 0.53054 1.1383 0.15434 0.63666 0.15434 1.8232z"/>
				<path d="m125.1 545.22 2.7202-0.41479q0.17363 0.79099 0.70418 1.2058 0.53054 0.40515 1.4855 0.40515 1.0514 0 1.582-0.38585 0.35691-0.2701 0.35691-0.72348 0-0.30868-0.19292-0.51125-0.20258-0.19293-0.90676-0.35691-3.2797-0.72347-4.1576-1.3215-1.2154-0.82958-1.2154-2.3055 0-1.3312 1.0514-2.2379 1.0514-0.90675 3.2604-0.90675 2.1029 0 3.1254 0.68489t1.4084 2.0257l-2.5563 0.47267q-0.16398-0.59807-0.62701-0.9164-0.45337-0.31833-1.3022-0.31833-1.0707 0-1.5338 0.29904-0.30868 0.21222-0.30868 0.54984 0 0.28939 0.2701 0.49196 0.36656 0.27009 2.5273 0.76205 2.1704 0.49196 3.0289 1.2058 0.84888 0.72347 0.84888 2.0161 0 1.4084-1.1768 2.4212t-3.4823 1.0129q-2.0932 0-3.3183-0.84887-1.2154-0.84887-1.5916-2.3055z"/>
			</g>
			<g transform="matrix(.86918 -.49449 1.0075 .57732 0 0)" aria-label="03 Customer  Relationships">
				<path d="m86.849 650.37q2.0547 0 3.2122 1.4662 1.3794 1.7363 1.3794 5.7588 0 4.0128-1.3891 5.7685-1.1479 1.4469-3.2026 1.4469-2.0643 0-3.328-1.582-1.2637-1.5916-1.2637-5.6624 0-3.9936 1.3891-5.7492 1.1479-1.4469 3.2026-1.4469zm0 2.2476q-0.49196 0-0.87781 0.31833-0.38585 0.30868-0.59807 1.119-0.27974 1.0514-0.27974 3.5402 0 2.4887 0.2508 3.4244 0.2508 0.92604 0.62701 1.2347 0.38585 0.30869 0.87781 0.30869 0.49196 0 0.87781-0.30869 0.38585-0.31832 0.59807-1.1286 0.27974-1.0418 0.27974-3.5305 0-2.4888-0.2508-3.4148-0.2508-0.93569-0.63666-1.2444-0.3762-0.31833-0.86817-0.31833z"/>
				<path d="m93.157 660.82 2.6238-0.31833q0.1254 1.0032 0.67524 1.5338 0.54984 0.53055 1.3312 0.53055 0.83923 0 1.4084-0.63666 0.57878-0.63665 0.57878-1.717 0-1.0225-0.54984-1.6206-0.54984-0.59807-1.3408-0.59807-0.5209 0-1.2444 0.20258l0.29904-2.209q1.0997 0.0289 1.6785-0.47267 0.57878-0.51125 0.57878-1.3505 0-0.71383-0.42444-1.1383-0.42444-0.42444-1.1286-0.42444-0.69453 0-1.1865 0.48231-0.49196 0.48232-0.59807 1.4084l-2.4984-0.42443q0.26045-1.283 0.78135-2.045 0.53055-0.7717 1.4662-1.2058 0.94534-0.44373 2.1125-0.44373 1.9968 0 3.2026 1.2733 0.99357 1.0418 0.99357 2.3537 0 1.8617-2.0354 2.9711 1.2154 0.26045 1.9389 1.1672 0.73312 0.90675 0.73312 2.1897 0 1.8617-1.3601 3.1736-1.3601 1.3119-3.3858 1.3119-1.9196 0-3.1833-1.0997-1.2637-1.1093-1.4662-2.8939z"/>
				<path d="m119.38 659.37 2.7685 0.87782q-0.63665 2.3151-2.1222 3.4437-1.4759 1.119-3.7524 1.119-2.8167 0-4.6302-1.9196-1.8135-1.9293-1.8135-5.2669 0-3.5306 1.8232-5.4791 1.8232-1.9582 4.7942-1.9582 2.5948 0 4.2154 1.5338 0.96462 0.90675 1.4469 2.6045l-2.8264 0.67525q-0.25081-1.0997-1.0514-1.7363-0.791-0.63665-1.9293-0.63665-1.5723 0-2.5563 1.1286-0.97428 1.1286-0.97428 3.656 0 2.6817 0.96463 3.8199t2.508 1.1383q1.1383 0 1.9582-0.72347 0.81994-0.72347 1.1768-2.2765z"/>
				<path d="m131.32 664.57v-1.5338q-0.55948 0.81994-1.4759 1.2926-0.90675 0.47266-1.9196 0.47266-1.0322 0-1.8521-0.45337-0.81993-0.45338-1.1865-1.2733-0.36656-0.81994-0.36656-2.2669v-6.4823h2.7106v4.7074q0 2.1608 0.14469 2.6527 0.15434 0.48232 0.54984 0.77171 0.3955 0.27974 1.0032 0.27974 0.69454 0 1.2444-0.37621 0.54983-0.38585 0.75241-0.94533 0.20257-0.56913 0.20257-2.7685v-4.3215h2.7106v10.244z"/>
				<path d="m135.69 661.65 2.7203-0.41479q0.17363 0.79099 0.70418 1.2058 0.53054 0.40515 1.4855 0.40515 1.0514 0 1.582-0.38585 0.35691-0.2701 0.35691-0.72348 0-0.30868-0.19293-0.51125-0.20257-0.19292-0.90675-0.35691-3.2797-0.72347-4.1576-1.3215-1.2154-0.82958-1.2154-2.3055 0-1.3312 1.0514-2.2379 1.0514-0.90676 3.2604-0.90676 2.1029 0 3.1254 0.68489t1.4084 2.0257l-2.5563 0.47267q-0.16399-0.59807-0.62701-0.9164-0.45337-0.31833-1.3022-0.31833-1.0707 0-1.5338 0.29904-0.30868 0.21222-0.30868 0.54984 0 0.28939 0.2701 0.49196 0.36656 0.27009 2.5273 0.76206 2.1704 0.49196 3.0289 1.2058 0.84887 0.72347 0.84887 2.0161 0 1.4084-1.1768 2.4212-1.1768 1.0129-3.4823 1.0129-2.0932 0-3.3183-0.84887-1.2154-0.84887-1.5916-2.3055z"/>
				<path d="m152.33 654.33v2.1608h-1.8521v4.1286q0 1.254 0.0482 1.4662 0.0579 0.20257 0.24115 0.33762 0.19293 0.13505 0.46302 0.13505 0.37621 0 1.09-0.26045l0.23151 2.1029q-0.94534 0.40514-2.1415 0.40514-0.73312 0-1.3215-0.24115-0.58843-0.25081-0.86817-0.63666-0.27009-0.3955-0.3762-1.0611-0.0868-0.47267-0.0868-1.91v-4.4662h-1.2444v-2.1608h1.2444v-2.0354l2.7202-1.582v3.6174z"/>
				<path d="m153.58 659.3q0-1.3505 0.6656-2.6141 0.66559-1.2637 1.881-1.9293 1.2251-0.6656 2.7299-0.6656 2.3248 0 3.8103 1.5145 1.4855 1.5048 1.4855 3.8103 0 2.3248-1.5048 3.8585-1.4952 1.5241-3.7717 1.5241-1.4084 0-2.6913-0.63665-1.2733-0.63666-1.9389-1.8617-0.6656-1.2347-0.6656-3zm2.7781 0.14469q0 1.5241 0.72348 2.3344 0.72347 0.81028 1.7846 0.81028t1.7749-0.81028q0.72347-0.81029 0.72347-2.3537 0-1.5048-0.72347-2.3151-0.71383-0.81029-1.7749-0.81029t-1.7846 0.81029q-0.72348 0.81029-0.72348 2.3344z"/>
				<path d="m166.07 654.33h2.4984v1.3987q1.3408-1.6302 3.1929-1.6302 0.98392 0 1.7074 0.40515 0.72347 0.40514 1.1865 1.2251 0.67524-0.81994 1.4566-1.2251 0.78135-0.40515 1.6688-0.40515 1.1286 0 1.91 0.46303 0.78134 0.45337 1.1672 1.3408 0.27974 0.65595 0.27974 2.1222v6.5498h-2.7106v-5.8553q0-1.5241-0.27974-1.9678-0.37621-0.57877-1.1576-0.57877-0.56913 0-1.0707 0.34726-0.50161 0.34727-0.72348 1.0225-0.22186 0.66559-0.22186 2.1125v4.9196h-2.7106v-5.6141q0-1.4952-0.14469-1.9292-0.1447-0.43409-0.45338-0.64631-0.29903-0.21221-0.81993-0.21221-0.62701 0-1.1286 0.33762-0.5016 0.33762-0.72347 0.97427-0.21222 0.63666-0.21222 2.1125v4.9775h-2.7106z"/>
				<path d="m189.77 661.31 2.701 0.45337q-0.5209 1.4855-1.6495 2.2669-1.119 0.7717-2.8071 0.7717-2.672 0-3.955-1.746-1.0129-1.3987-1.0129-3.5306 0-2.5466 1.3312-3.9839 1.3312-1.447 3.3666-1.447 2.2862 0 3.6077 1.5145 1.3215 1.5048 1.2637 4.6206h-6.791q0.0289 1.2058 0.65595 1.881 0.627 0.66559 1.5627 0.66559 0.63666 0 1.0707-0.34726 0.43409-0.34727 0.65595-1.119zm0.15434-2.7396q-0.0289-1.1768-0.60772-1.7846-0.57877-0.61736-1.4084-0.61736-0.88746 0-1.4662 0.6463t-0.56913 1.7556z"/>
				<path d="m197.42 664.57h-2.7106v-10.244h2.5177v1.4566q0.6463-1.0322 1.1576-1.3601 0.5209-0.32798 1.1768-0.32798 0.92605 0 1.7846 0.51126l-0.83922 2.3633q-0.68489-0.44373-1.2733-0.44373-0.56913 0-0.96463 0.31833-0.3955 0.30868-0.62701 1.1286-0.22186 0.81994-0.22186 3.4341z"/>
				<path d="m82.874 689.27v-14.141h6.0096q2.2669 0 3.2894 0.38586 1.0322 0.3762 1.6495 1.3505 0.61736 0.97427 0.61736 2.2283 0 1.5916-0.93569 2.6334-0.93569 1.0322-2.7974 1.3022 0.92604 0.5402 1.5241 1.1865 0.60772 0.6463 1.6302 2.2958l1.7267 2.7588h-3.4148l-2.0643-3.0772q-1.0997-1.6495-1.5048-2.074-0.40514-0.43409-0.85852-0.58843-0.45338-0.16399-1.4373-0.16399h-0.57878v5.9035zm2.8553-8.1608h2.1125q2.0547 0 2.5659-0.17363t0.80064-0.59807 0.28939-1.0611q0-0.71383-0.38585-1.1479-0.3762-0.44373-1.0707-0.55948-0.34727-0.0482-2.0836-0.0482h-2.2283z"/>
				<path d="m103.04 686.01 2.701 0.45337q-0.5209 1.4855-1.6495 2.2669-1.119 0.7717-2.8071 0.7717-2.672 0-3.955-1.746-1.0129-1.3987-1.0129-3.5306 0-2.5466 1.3312-3.9839 1.3312-1.447 3.3666-1.447 2.2862 0 3.6077 1.5145 1.3215 1.5048 1.2637 4.6206h-6.791q0.02894 1.2058 0.65595 1.881 0.62701 0.66559 1.5627 0.66559 0.63665 0 1.0707-0.34726 0.43409-0.34727 0.65595-1.119zm0.15434-2.7396q-0.0289-1.1768-0.60771-1.7846-0.57878-0.61736-1.4084-0.61736-0.88746 0-1.4662 0.6463-0.57878 0.6463-0.56913 1.7556z"/>
				<path d="m108.1 689.27v-14.141h2.7106v14.141z"/>
				<path d="m115.61 682.15-2.4598-0.44373q0.41479-1.4855 1.4276-2.1994 1.0129-0.71383 3.0096-0.71383 1.8135 0 2.701 0.43409 0.88745 0.42443 1.2444 1.09 0.36656 0.65595 0.36656 2.4212l-0.0289 3.164q0 1.3505 0.1254 1.9968 0.13505 0.63666 0.49196 1.3698h-2.6817q-0.10611-0.27009-0.26045-0.80064-0.0675-0.24116-0.0965-0.31833-0.69453 0.67524-1.4855 1.0129t-1.6881 0.33762q-1.582 0-2.4984-0.85851-0.90675-0.85852-0.90675-2.1704 0-0.86817 0.41479-1.5434 0.41479-0.68488 1.1576-1.0418 0.75242-0.36655 2.1608-0.63665 1.9003-0.35691 2.6334-0.66559v-0.2701q0-0.78135-0.38585-1.1093-0.38585-0.33762-1.4566-0.33762-0.72347 0-1.1286 0.28938-0.40514 0.27975-0.65594 0.99357zm3.627 2.1994q-0.5209 0.17363-1.6495 0.41479-1.1286 0.24115-1.4759 0.47267-0.53054 0.3762-0.53054 0.95498 0 0.56913 0.42443 0.98392 0.42444 0.41479 1.0804 0.41479 0.73312 0 1.3987-0.48231 0.49196-0.36656 0.6463-0.89711 0.10611-0.34727 0.10611-1.3215z"/>
				<path d="m129.27 679.02v2.1608h-1.8521v4.1286q0 1.254 0.0482 1.4662 0.0579 0.20257 0.24116 0.33762 0.19293 0.13505 0.46302 0.13505 0.37621 0 1.09-0.26045l0.23152 2.1029q-0.94534 0.40514-2.1415 0.40514-0.73312 0-1.3215-0.24115-0.58843-0.25081-0.86817-0.63666-0.27009-0.3955-0.3762-1.0611-0.0868-0.47267-0.0868-1.91v-4.4662h-1.2444v-2.1608h1.2444v-2.0354l2.7202-1.582v3.6174z"/>
				<path d="m131.15 677.63v-2.508h2.7106v2.508zm0 11.633v-10.244h2.7106v10.244z"/>
				<path d="m136.02 684q0-1.3505 0.66559-2.6141 0.6656-1.2637 1.881-1.9293 1.2251-0.6656 2.7299-0.6656 2.3248 0 3.8103 1.5145 1.4855 1.5048 1.4855 3.8103 0 2.3248-1.5048 3.8585-1.4952 1.5241-3.7717 1.5241-1.4084 0-2.6913-0.63665-1.2733-0.63666-1.9389-1.8617-0.66559-1.2347-0.66559-3zm2.7781 0.14469q0 1.5241 0.72347 2.3344 0.72347 0.81028 1.7846 0.81028 1.0611 0 1.7749-0.81028 0.72347-0.81029 0.72347-2.3537 0-1.5048-0.72347-2.3151-0.71382-0.81029-1.7749-0.81029-1.0611 0-1.7846 0.81029t-0.72347 2.3344z"/>
				<path d="m158.03 689.27h-2.7106v-5.2283q0-1.6592-0.17363-2.1415-0.17364-0.49196-0.56913-0.76206-0.38586-0.27009-0.93569-0.27009-0.70418 0-1.2637 0.38585-0.55948 0.38585-0.7717 1.0225-0.20257 0.63666-0.20257 2.3537v4.6399h-2.7106v-10.244h2.5177v1.5048q1.3408-1.7363 3.3762-1.7363 0.89711 0 1.6399 0.32798 0.74277 0.31833 1.119 0.81993 0.38585 0.50161 0.53055 1.1383 0.15434 0.63666 0.15434 1.8232z"/>
				<path d="m159.82 686.34 2.7203-0.41479q0.17363 0.79099 0.70417 1.2058 0.53055 0.40515 1.4855 0.40515 1.0514 0 1.582-0.38585 0.35692-0.2701 0.35692-0.72348 0-0.30868-0.19293-0.51125-0.20257-0.19292-0.90675-0.35691-3.2797-0.72347-4.1576-1.3215-1.2154-0.82958-1.2154-2.3055 0-1.3312 1.0514-2.2379 1.0514-0.90676 3.2604-0.90676 2.1029 0 3.1254 0.68489 1.0225 0.68489 1.4084 2.0257l-2.5563 0.47267q-0.16399-0.59807-0.62701-0.9164-0.45338-0.31833-1.3022-0.31833-1.0707 0-1.5338 0.29904-0.30868 0.21222-0.30868 0.54984 0 0.28939 0.27009 0.49196 0.36656 0.27009 2.5273 0.76206 2.1704 0.49196 3.0289 1.2058 0.84887 0.72347 0.84887 2.0161 0 1.4084-1.1768 2.4212-1.1768 1.0129-3.4823 1.0129-2.0932 0-3.3183-0.84887-1.2154-0.84887-1.5916-2.3055z"/>
				<path d="m174.47 675.12v5.1994q1.3119-1.5338 3.135-1.5338 0.93569 0 1.6881 0.34727t1.1286 0.88746q0.38585 0.54019 0.5209 1.1961 0.14469 0.65595 0.14469 2.0354v6.0096h-2.7106v-5.4116q0-1.6109-0.15434-2.045-0.15434-0.43408-0.54984-0.68488-0.38585-0.26045-0.97427-0.26045-0.67524 0-1.2058 0.32797-0.53054 0.32797-0.78135 0.99357-0.24115 0.65595-0.24115 1.9486v5.1318h-2.7106v-14.141z"/>
				<path d="m183.83 677.63v-2.508h2.7106v2.508zm0 11.633v-10.244h2.7106v10.244z"/>
				<path d="m189.24 679.02h2.5273v1.5048q0.49196-0.77171 1.3312-1.254 0.83922-0.48232 1.8617-0.48232 1.7846 0 3.0289 1.3987 1.2444 1.3987 1.2444 3.8971 0 2.5659-1.254 3.9936-1.254 1.418-3.0386 1.418-0.84888 0-1.5434-0.33762-0.68489-0.33762-1.4469-1.1576v5.1608h-2.7106zm2.6817 4.9486q0 1.7267 0.68488 2.5563 0.68489 0.81993 1.6688 0.81993 0.94534 0 1.5724-0.75241 0.62701-0.76206 0.62701-2.4887 0-1.6109-0.64631-2.3923-0.6463-0.78135-1.6013-0.78135-0.99357 0-1.6495 0.7717-0.65595 0.76206-0.65595 2.2669z"/>
				<path d="m200.43 686.34 2.7202-0.41479q0.17364 0.79099 0.70418 1.2058 0.53055 0.40515 1.4855 0.40515 1.0514 0 1.582-0.38585 0.35691-0.2701 0.35691-0.72348 0-0.30868-0.19292-0.51125-0.20257-0.19292-0.90675-0.35691-3.2797-0.72347-4.1576-1.3215-1.2154-0.82958-1.2154-2.3055 0-1.3312 1.0514-2.2379 1.0514-0.90676 3.2604-0.90676 2.1029 0 3.1254 0.68489 1.0225 0.68489 1.4084 2.0257l-2.5563 0.47267q-0.16399-0.59807-0.62701-0.9164-0.45338-0.31833-1.3022-0.31833-1.0707 0-1.5338 0.29904-0.30868 0.21222-0.30868 0.54984 0 0.28939 0.27009 0.49196 0.36656 0.27009 2.5273 0.76206 2.1704 0.49196 3.0289 1.2058 0.84887 0.72347 0.84887 2.0161 0 1.4084-1.1768 2.4212t-3.4823 1.0129q-2.0932 0-3.3183-0.84887-1.2154-0.84887-1.5916-2.3055z"/>
			</g>
			<g transform="matrix(.86918 -.49449 1.0075 .57732 0 0)" aria-label="04 Channels">
				<path d="m-68.454 666.35q2.0547 0 3.2122 1.4662 1.3794 1.7363 1.3794 5.7588 0 4.0129-1.3891 5.7685-1.1479 1.447-3.2026 1.447-2.0643 0-3.328-1.582-1.2637-1.5916-1.2637-5.6624 0-3.9936 1.3891-5.7492 1.1479-1.4469 3.2026-1.4469zm0 2.2476q-0.49196 0-0.87781 0.31832-0.38585 0.30869-0.59807 1.119-0.27974 1.0514-0.27974 3.5402t0.2508 3.4244q0.2508 0.92605 0.62701 1.2347 0.38585 0.30868 0.87781 0.30868 0.49196 0 0.87781-0.30868 0.38585-0.31833 0.59807-1.1286 0.27974-1.0418 0.27974-3.5305t-0.2508-3.4148q-0.2508-0.93569-0.63666-1.2444-0.37621-0.31832-0.86817-0.31832z"/>
				<path d="m-56.734 680.55v-2.8457h-5.7878v-2.373l6.135-8.9807h2.2765v8.971h1.7556v2.3826h-1.7556v2.8457zm0-5.2283v-4.8328l-3.2508 4.8328z"/>
				<path d="m-35.927 675.35 2.7685 0.87781q-0.63666 2.3151-2.1222 3.4437-1.4759 1.119-3.7524 1.119-2.8167 0-4.6302-1.9196-1.8135-1.9292-1.8135-5.2669 0-3.5305 1.8231-5.4791 1.8231-1.9582 4.7942-1.9582 2.5949 0 4.2154 1.5338 0.96463 0.90675 1.4469 2.6045l-2.8264 0.67524q-0.2508-1.0997-1.0514-1.7363-0.791-0.63666-1.9293-0.63666-1.5723 0-2.5563 1.1286-0.97428 1.1286-0.97428 3.6559 0 2.6817 0.96463 3.8199t2.508 1.1383q1.1383 0 1.9582-0.72347t1.1768-2.2765z"/>
				<path d="m-28.026 666.41v5.1994q1.3119-1.5338 3.135-1.5338 0.93569 0 1.6881 0.34726 0.75241 0.34727 1.1286 0.88746 0.38585 0.5402 0.5209 1.1961 0.1447 0.65595 0.1447 2.0354v6.0096h-2.7106v-5.4116q0-1.6109-0.15434-2.045-0.15434-0.43409-0.54984-0.68489-0.38585-0.26045-0.97428-0.26045-0.67524 0-1.2058 0.32797-0.53055 0.32798-0.78135 0.99357-0.24116 0.65595-0.24116 1.9486v5.1318h-2.7106v-14.141z"/>
				<path d="m-16.634 673.43-2.4598-0.44373q0.41479-1.4855 1.4277-2.1994 1.0129-0.71382 3.0096-0.71382 1.8135 0 2.701 0.43408 0.88746 0.42444 1.2444 1.09 0.36656 0.65595 0.36656 2.4212l-0.02894 3.164q0 1.3505 0.1254 1.9968 0.13505 0.63665 0.49196 1.3698h-2.6817q-0.10611-0.2701-0.26045-0.80064-0.06752-0.24116-0.09646-0.31833-0.69453 0.67524-1.4855 1.0129-0.791 0.33762-1.6881 0.33762-1.582 0-2.4984-0.85852-0.90675-0.85852-0.90675-2.1704 0-0.86816 0.41479-1.5434 0.41479-0.68489 1.1576-1.0418 0.75241-0.36656 2.1608-0.63666 1.9003-0.35691 2.6334-0.66559v-0.2701q0-0.78135-0.38585-1.1093-0.38585-0.33762-1.4566-0.33762-0.72347 0-1.1286 0.28939-0.40514 0.27974-0.65595 0.99357zm3.627 2.1994q-0.5209 0.17363-1.6495 0.41479t-1.4759 0.47267q-0.53055 0.3762-0.53055 0.95498 0 0.56913 0.42444 0.98392 0.42444 0.41479 1.0804 0.41479 0.73312 0 1.3987-0.48231 0.49196-0.36656 0.6463-0.89711 0.10611-0.34726 0.10611-1.3215z"/>
				<path d="m1.6457 680.55h-2.7106v-5.2283q0-1.6592-0.17363-2.1415-0.17363-0.49196-0.56913-0.76205-0.38585-0.2701-0.93569-0.2701-0.70418 0-1.2637 0.38585-0.55948 0.38585-0.7717 1.0225-0.20257 0.63665-0.20257 2.3537v4.6399h-2.7106v-10.244h2.5177v1.5048q1.3408-1.7363 3.3762-1.7363 0.8971 0 1.6399 0.32797 0.74276 0.31833 1.119 0.81994 0.38585 0.5016 0.53055 1.1383 0.15434 0.63665 0.15434 1.8232z"/>
				<path d="m13.713 680.55h-2.7106v-5.2283q0-1.6592-0.17363-2.1415-0.17363-0.49196-0.56913-0.76205-0.38585-0.2701-0.93569-0.2701-0.70418 0-1.2637 0.38585-0.55948 0.38585-0.7717 1.0225-0.20257 0.63665-0.20257 2.3537v4.6399h-2.7106v-10.244h2.5177v1.5048q1.3408-1.7363 3.3762-1.7363 0.8971 0 1.6399 0.32797 0.74276 0.31833 1.119 0.81994 0.38585 0.5016 0.53055 1.1383 0.15434 0.63665 0.15434 1.8232z"/>
				<path d="m22.395 677.29 2.701 0.45338q-0.5209 1.4855-1.6495 2.2669-1.119 0.7717-2.8071 0.7717-2.672 0-3.955-1.746-1.0129-1.3987-1.0129-3.5305 0-2.5466 1.3312-3.9839 1.3312-1.4469 3.3666-1.4469 2.2862 0 3.6077 1.5145 1.3215 1.5048 1.2637 4.6206h-6.791q0.02894 1.2058 0.65595 1.881 0.62701 0.6656 1.5627 0.6656 0.63666 0 1.0707-0.34727 0.43408-0.34726 0.65595-1.119zm0.15434-2.7395q-0.02894-1.1768-0.60772-1.7846-0.57878-0.61736-1.4084-0.61736-0.88746 0-1.4662 0.6463-0.57878 0.6463-0.56913 1.7556z"/>
				<path d="m27.45 680.55v-14.141h2.7106v14.141z"/>
				<path d="m31.983 677.62 2.7203-0.41479q0.17363 0.791 0.70418 1.2058 0.53055 0.40514 1.4855 0.40514 1.0514 0 1.582-0.38585 0.35691-0.27009 0.35691-0.72347 0-0.30868-0.19292-0.51125-0.20257-0.19293-0.90675-0.35692-3.2797-0.72347-4.1576-1.3215-1.2154-0.82958-1.2154-2.3055 0-1.3312 1.0514-2.2379 1.0514-0.90675 3.2604-0.90675 2.1029 0 3.1254 0.68489 1.0225 0.68488 1.4084 2.0257l-2.5563 0.47266q-0.16399-0.59807-0.62701-0.91639-0.45338-0.31833-1.3022-0.31833-1.0707 0-1.5338 0.29903-0.30868 0.21222-0.30868 0.54984 0 0.28939 0.2701 0.49196 0.36656 0.2701 2.5273 0.76206 2.1704 0.49196 3.0289 1.2058 0.84887 0.72347 0.84887 2.0161 0 1.4084-1.1768 2.4212-1.1768 1.0129-3.4823 1.0129-2.0932 0-3.3183-0.84887-1.2154-0.84888-1.5916-2.3055z"/>
			</g>
			<path transform="matrix(.86918 -.49449 1.0075 .57732 0 0)" d="m-217.35 693.88q2.0547 0 3.2122 1.4662 1.3794 1.7363 1.3794 5.7588 0 4.0128-1.3891 5.7685-1.1479 1.4469-3.2026 1.4469-2.0643 0-3.328-1.582-1.2637-1.5916-1.2637-5.6624 0-3.9936 1.3891-5.7492 1.1479-1.4469 3.2026-1.4469zm0 2.2476q-0.49196 0-0.87781 0.31833-0.38586 0.30868-0.59807 1.119-0.27975 1.0514-0.27975 3.5402 0 2.4887 0.25081 3.4244 0.2508 0.92604 0.62701 1.2347 0.38585 0.30868 0.87781 0.30868t0.87781-0.30868q0.38585-0.31832 0.59807-1.1286 0.27974-1.0418 0.27974-3.5305 0-2.4888-0.2508-3.4148-0.2508-0.93569-0.63666-1.2444-0.3762-0.31833-0.86816-0.31833z"/>
			<path transform="matrix(.86918 -.49449 1.0075 .57732 0 0)" d="m-210.91 704.44 2.701-0.27974q0.11576 0.9164 0.68489 1.4566 0.56913 0.53054 1.3119 0.53054 0.84888 0 1.4373-0.68488 0.58842-0.69453 0.58842-2.0836 0-1.3022-0.58842-1.9486-0.57878-0.65595-1.5145-0.65595-1.1672 0-2.0932 1.0322l-2.1994-0.31832 1.3891-7.3601h7.1672v2.537h-5.1125l-0.42444 2.4019q0.90675-0.45338 1.8521-0.45338 1.8039 0 3.0579 1.3119 1.254 1.3119 1.254 3.4051 0 1.746-1.0129 3.1158-1.3794 1.8714-3.8296 1.8714-1.9582 0-3.1929-1.0514-1.2347-1.0514-1.4759-2.8264z"/>
			<path transform="matrix(.86918 -.49449 1.0075 .57732 0 0)" d="m-193.86 708.08v-14.141h6.0096q2.2669 0 3.2894 0.38585 1.0322 0.37621 1.6495 1.3505 0.61736 0.97428 0.61736 2.2283 0 1.5916-0.93569 2.6334-0.93569 1.0322-2.7974 1.3022 0.92604 0.5402 1.5241 1.1865 0.60772 0.6463 1.6302 2.2958l1.7267 2.7588h-3.4148l-2.0643-3.0772q-1.0997-1.6495-1.5048-2.074-0.40515-0.43408-0.85852-0.58842-0.45338-0.16399-1.4373-0.16399h-0.57878v5.9035zm2.8553-8.1608h2.1125q2.0547 0 2.5659-0.17363 0.51126-0.17363 0.80065-0.59807t0.28939-1.0611q0-0.71383-0.38586-1.1479-0.3762-0.44373-1.0707-0.55949-0.34727-0.0482-2.0836-0.0482h-2.2283z"/>
			<path transform="matrix(.86918 -.49449 1.0075 .57732 0 0)" d="m-173.69 704.82 2.701 0.45337q-0.5209 1.4855-1.6495 2.2669-1.119 0.7717-2.8071 0.7717-2.672 0-3.955-1.746-1.0129-1.3987-1.0129-3.5306 0-2.5466 1.3312-3.9839 1.3312-1.447 3.3666-1.447 2.2862 0 3.6077 1.5145 1.3216 1.5048 1.2637 4.6206h-6.791q0.0289 1.2058 0.65595 1.881 0.62701 0.66559 1.5627 0.66559 0.63665 0 1.0707-0.34726 0.43408-0.34727 0.65594-1.119zm0.15434-2.7396q-0.0289-1.1768-0.60771-1.7846-0.57878-0.61737-1.4084-0.61737-0.88746 0-1.4662 0.64631-0.57877 0.6463-0.56913 1.7556z"/>
			<path transform="matrix(.86918 -.49449 1.0075 .57732 0 0)" d="m-165.82 708.08-4.1286-10.244h2.8456l1.9293 5.2283 0.55948 1.746q0.22187-0.66559 0.27975-0.87781 0.13504-0.43408 0.28938-0.86817l1.9486-5.2283h2.7878l-4.0707 10.244z"/>
			<path transform="matrix(.86918 -.49449 1.0075 .57732 0 0)" d="m-151.72 704.82 2.701 0.45337q-0.5209 1.4855-1.6495 2.2669-1.119 0.7717-2.8071 0.7717-2.672 0-3.955-1.746-1.0129-1.3987-1.0129-3.5306 0-2.5466 1.3312-3.9839 1.3312-1.447 3.3666-1.447 2.2862 0 3.6077 1.5145 1.3215 1.5048 1.2637 4.6206h-6.791q0.0289 1.2058 0.65595 1.881 0.627 0.66559 1.5627 0.66559 0.63666 0 1.0707-0.34726 0.43409-0.34727 0.65595-1.119zm0.15434-2.7396q-0.0289-1.1768-0.60772-1.7846-0.57877-0.61737-1.4084-0.61737-0.88746 0-1.4662 0.64631-0.57878 0.6463-0.56913 1.7556z"/>
			<path transform="matrix(.86918 -.49449 1.0075 .57732 0 0)" d="m-137.34 708.08h-2.7106v-5.2283q0-1.6592-0.17363-2.1415-0.17363-0.49196-0.56913-0.76206-0.38585-0.2701-0.93569-0.2701-0.70418 0-1.2637 0.38586-0.55948 0.38585-0.7717 1.0225-0.20257 0.63666-0.20257 2.3537v4.6399h-2.7106v-10.244h2.5177v1.5048q1.3408-1.7363 3.3762-1.7363 0.89711 0 1.6399 0.32798 0.74277 0.31832 1.119 0.81993 0.38585 0.50161 0.53055 1.1383 0.15434 0.63666 0.15434 1.8232z"/>
			<path transform="matrix(.86918 -.49449 1.0075 .57732 0 0)" d="m-127.85 708.08v-1.5338q-0.55948 0.81994-1.4759 1.2926-0.90675 0.47266-1.9196 0.47266-1.0322 0-1.8521-0.45337-0.81993-0.45338-1.1865-1.2733-0.36656-0.81994-0.36656-2.2669v-6.4823h2.7106v4.7074q0 2.1608 0.14469 2.6527 0.15434 0.48232 0.54984 0.77171 0.3955 0.27974 1.0032 0.27974 0.69454 0 1.2444-0.37621 0.54984-0.38585 0.75241-0.94533 0.20258-0.56913 0.20258-2.7685v-4.3215h2.7106v10.244z"/>
			<path transform="matrix(.86918 -.49449 1.0075 .57732 0 0)" d="m-116.59 704.82 2.701 0.45337q-0.5209 1.4855-1.6495 2.2669-1.119 0.7717-2.8071 0.7717-2.672 0-3.955-1.746-1.0129-1.3987-1.0129-3.5306 0-2.5466 1.3312-3.9839 1.3312-1.447 3.3666-1.447 2.2862 0 3.6077 1.5145 1.3215 1.5048 1.2637 4.6206h-6.791q0.0289 1.2058 0.65594 1.881 0.62701 0.66559 1.5627 0.66559 0.63666 0 1.0707-0.34726 0.43408-0.34727 0.65595-1.119zm0.15434-2.7396q-0.0289-1.1768-0.60772-1.7846-0.57877-0.61737-1.4084-0.61737-0.88745 0-1.4662 0.64631-0.57878 0.6463-0.56913 1.7556z"/>
			<path transform="matrix(.86918 -.49449 1.0075 .57732 0 0)" d="m-216.57 728.17 2.7781-0.27009q0.2508 1.3987 1.0129 2.0547 0.7717 0.65594 2.074 0.65594 1.3794 0 2.074-0.57877 0.70418-0.58843 0.70418-1.3698 0-0.5016-0.29903-0.84887-0.28939-0.35691-1.0225-0.61736-0.50161-0.17364-2.2862-0.61737-2.2958-0.56913-3.2219-1.3987-1.3022-1.1672-1.3022-2.8456 0-1.0804 0.60772-2.0161 0.61736-0.94533 1.7653-1.4373 1.1576-0.49196 2.7878-0.49196 2.6624 0 4.0032 1.1672 1.3505 1.1672 1.418 3.1158l-2.8553 0.1254q-0.18328-1.09-0.791-1.5627-0.59807-0.48231-1.8038-0.48231-1.2444 0-1.9486 0.51125-0.45338 0.32797-0.45338 0.87781 0 0.50161 0.42444 0.85852 0.54019 0.45338 2.6238 0.94534t3.0772 1.0225q1.0032 0.5209 1.5627 1.4373 0.56913 0.90675 0.56913 2.2476 0 1.2154-0.67524 2.2765t-1.91 1.582q-1.2347 0.51126-3.0772 0.51126-2.6817 0-4.119-1.2347-1.4373-1.2444-1.717-3.6174z"/>
			<path transform="matrix(.86918 -.49449 1.0075 .57732 0 0)" d="m-197.99 722.53v2.1608h-1.8521v4.1286q0 1.254 0.0482 1.4662 0.0579 0.20257 0.24116 0.33762 0.19293 0.13505 0.46302 0.13505 0.37621 0 1.09-0.26045l0.23151 2.1029q-0.94533 0.40514-2.1415 0.40514-0.73312 0-1.3215-0.24115-0.58843-0.25081-0.86817-0.63666-0.2701-0.3955-0.3762-1.0611-0.0868-0.47267-0.0868-1.91v-4.4662h-1.2444v-2.1608h1.2444v-2.0354l2.7202-1.582v3.6174z"/>
			<path transform="matrix(.86918 -.49449 1.0075 .57732 0 0)" d="m-193.51 732.77h-2.7106v-10.244h2.5177v1.4566q0.6463-1.0322 1.1576-1.3601 0.5209-0.32798 1.1768-0.32798 0.92605 0 1.7846 0.51126l-0.83923 2.3633q-0.68489-0.44373-1.2733-0.44373-0.56913 0-0.96463 0.31833-0.3955 0.30868-0.62701 1.1286-0.22186 0.81994-0.22186 3.4341z"/>
			<path transform="matrix(.86918 -.49449 1.0075 .57732 0 0)" d="m-182.49 729.51 2.701 0.45337q-0.5209 1.4855-1.6495 2.2669-1.119 0.7717-2.8071 0.7717-2.672 0-3.955-1.746-1.0129-1.3987-1.0129-3.5306 0-2.5466 1.3312-3.9839 1.3312-1.447 3.3666-1.447 2.2862 0 3.6077 1.5145 1.3215 1.5048 1.2637 4.6206h-6.791q0.0289 1.2058 0.65595 1.881 0.62701 0.66559 1.5627 0.66559 0.63666 0 1.0707-0.34726 0.43408-0.34727 0.65595-1.119zm0.15434-2.7396q-0.0289-1.1768-0.60772-1.7846-0.57878-0.61737-1.4084-0.61737-0.88746 0-1.4662 0.64631-0.57878 0.6463-0.56913 1.7556z"/>
			<path transform="matrix(.86918 -.49449 1.0075 .57732 0 0)" d="m-175.41 725.65-2.4598-0.44373q0.41479-1.4855 1.4276-2.1994 1.0129-0.71383 3.0096-0.71383 1.8135 0 2.701 0.43409 0.88746 0.42443 1.2444 1.09 0.36655 0.65594 0.36655 2.4212l-0.0289 3.164q0 1.3505 0.1254 1.9968 0.13505 0.63665 0.49196 1.3698h-2.6817q-0.10611-0.27009-0.26045-0.80064-0.0675-0.24116-0.0965-0.31833-0.69454 0.67524-1.4855 1.0129-0.791 0.33762-1.6881 0.33762-1.582 0-2.4984-0.85852-0.90675-0.85852-0.90675-2.1704 0-0.86817 0.41479-1.5434 0.41479-0.68488 1.1576-1.0418 0.75241-0.36656 2.1608-0.63665 1.9003-0.35691 2.6334-0.6656v-0.27009q0-0.78135-0.38585-1.1093-0.38585-0.33762-1.4566-0.33762-0.72347 0-1.1286 0.28939-0.40514 0.27975-0.65595 0.99357zm3.627 2.1994q-0.5209 0.17363-1.6495 0.41479-1.1286 0.24115-1.4759 0.47266-0.53054 0.37621-0.53054 0.95499 0 0.56913 0.42443 0.98392 0.42444 0.41479 1.0804 0.41479 0.73311 0 1.3987-0.48232 0.49196-0.36656 0.6463-0.8971 0.10611-0.34727 0.10611-1.3215z"/>
			<path transform="matrix(.86918 -.49449 1.0075 .57732 0 0)" d="m-166.65 722.53h2.4984v1.3987q1.3408-1.6302 3.1929-1.6302 0.98393 0 1.7074 0.40515 0.72347 0.40514 1.1865 1.2251 0.67524-0.81994 1.4566-1.2251 0.78135-0.40515 1.6688-0.40515 1.1286 0 1.91 0.46302 0.78135 0.45338 1.1672 1.3408 0.27975 0.65595 0.27975 2.1222v6.5498h-2.7106v-5.8553q0-1.5241-0.27974-1.9678-0.37621-0.57878-1.1576-0.57878-0.56913 0-1.0707 0.34727-0.5016 0.34727-0.72347 1.0225-0.22186 0.66559-0.22186 2.1125v4.9196h-2.7106v-5.6141q0-1.4952-0.14469-1.9293-0.1447-0.43408-0.45338-0.6463-0.29903-0.21222-0.81993-0.21222-0.62701 0-1.1286 0.33762-0.50161 0.33763-0.72347 0.97428-0.21222 0.63666-0.21222 2.1125v4.9775h-2.7106z"/>
			<path transform="matrix(.86918 -.49449 1.0075 .57732 0 0)" d="m-149.84 729.85 2.7202-0.41479q0.17363 0.79099 0.70418 1.2058 0.53055 0.40515 1.4855 0.40515 1.0514 0 1.582-0.38585 0.35691-0.2701 0.35691-0.72348 0-0.30868-0.19292-0.51125-0.20257-0.19293-0.90675-0.35691-3.2797-0.72347-4.1576-1.3215-1.2154-0.82958-1.2154-2.3055 0-1.3312 1.0514-2.2379 1.0514-0.90675 3.2604-0.90675 2.1029 0 3.1254 0.68489 1.0225 0.68489 1.4084 2.0257l-2.5563 0.47267q-0.16398-0.59807-0.62701-0.9164-0.45337-0.31833-1.3022-0.31833-1.0707 0-1.5338 0.29904-0.30869 0.21222-0.30869 0.54984 0 0.28939 0.2701 0.49196 0.36656 0.27009 2.5273 0.76205 2.1704 0.49196 3.0289 1.2058 0.84888 0.72347 0.84888 2.0161 0 1.4084-1.1768 2.4212t-3.4823 1.0129q-2.0932 0-3.3183-0.84887-1.2154-0.84887-1.5916-2.3055z"/>
			<g transform="matrix(.86918 -.49449 1.0075 .57732 0 0)" aria-label="06 Key  Activities">
				<path d="m111.83 371.84q2.0547 0 3.2122 1.4662 1.3794 1.7363 1.3794 5.7588 0 4.0129-1.3891 5.7685-1.1479 1.447-3.2026 1.447-2.0643 0-3.328-1.582-1.2637-1.5916-1.2637-5.6624 0-3.9936 1.3891-5.7492 1.1479-1.447 3.2026-1.447zm0 2.2476q-0.49196 0-0.87781 0.31832-0.38585 0.30869-0.59807 1.119-0.27974 1.0514-0.27974 3.5402t0.2508 3.4244q0.2508 0.92605 0.62701 1.2347 0.38585 0.30868 0.87781 0.30868t0.87781-0.30868q0.38586-0.31833 0.59807-1.1286 0.27975-1.0418 0.27975-3.5305t-0.25081-3.4148q-0.2508-0.93569-0.63665-1.2444-0.37621-0.31832-0.86817-0.31832z"/>
				<path d="m127.42 375.36-2.6238 0.28939q-0.0965-0.81029-0.50161-1.1961-0.40515-0.38586-1.0514-0.38586-0.85852 0-1.4566 0.77171-0.58842 0.7717-0.74276 3.2122 1.0129-1.1961 2.5177-1.1961 1.6978 0 2.9035 1.2926 1.2154 1.2926 1.2154 3.3376 0 2.1704-1.2733 3.4823-1.2733 1.3119-3.2701 1.3119-2.1415 0-3.5209-1.6592-1.3794-1.6688-1.3794-5.4598 0-3.8875 1.4373-5.6045 1.4373-1.717 3.7331-1.717 1.6109 0 2.6624 0.90675 1.0611 0.89711 1.3505 2.6142zm-6.1447 5.9132q0 1.3215 0.60772 2.045 0.60771 0.71382 1.3891 0.71382 0.75241 0 1.254-0.58842 0.50161-0.58843 0.50161-1.9293 0-1.3794-0.5402-2.0161-0.54019-0.64631-1.3505-0.64631-0.78135 0-1.3215 0.61737-0.54019 0.60771-0.54019 1.8038z"/>
				<path d="m135.34 386.04v-14.141h2.8553v6.2797l5.7685-6.2797h3.8392l-5.3248 5.508 5.6141 8.6334h-3.6945l-3.8874-6.6366-2.3151 2.3633v4.2733z"/>
				<path d="m155.49 382.78 2.701 0.45338q-0.5209 1.4855-1.6495 2.2669-1.119 0.7717-2.8071 0.7717-2.672 0-3.955-1.746-1.0129-1.3987-1.0129-3.5305 0-2.5466 1.3312-3.9839 1.3312-1.4469 3.3666-1.4469 2.2862 0 3.6077 1.5145 1.3215 1.5048 1.2637 4.6206h-6.791q0.0289 1.2058 0.65594 1.881 0.62701 0.66559 1.5627 0.66559 0.63666 0 1.0707-0.34727 0.43408-0.34726 0.65595-1.119zm0.15434-2.7395q-0.0289-1.1768-0.60772-1.7846-0.57878-0.61736-1.4084-0.61736-0.88746 0-1.4662 0.6463-0.57878 0.6463-0.56913 1.7556z"/>
				<path d="m159.26 375.8h2.8842l2.4502 7.2733 2.3923-7.2733h2.8071l-3.6174 9.8585-0.6463 1.7846q-0.35692 0.89711-0.68489 1.3698-0.31833 0.47267-0.74276 0.76206-0.41479 0.29904-1.0322 0.46302-0.60771 0.16399-1.3794 0.16399-0.78135 0-1.5338-0.16399l-0.24115-2.1222q0.63665 0.1254 1.1479 0.1254 0.94534 0 1.3987-0.55948 0.45337-0.54984 0.69453-1.4084z"/>
				<path d="m125.35 410.73h-3.1061l-1.2347-3.2122h-5.6527l-1.1672 3.2122h-3.0289l5.508-14.141h3.0193zm-5.2572-5.5948-1.9486-5.2476-1.91 5.2476z"/>
				<path d="m135.78 403.52-2.672 0.48232q-0.13505-0.80064-0.61737-1.2058-0.47266-0.40514-1.2347-0.40514-1.0129 0-1.6206 0.70418-0.59807 0.69453-0.59807 2.3344 0 1.8232 0.60772 2.5756 0.61736 0.75241 1.6495 0.75241 0.77171 0 1.2637-0.43408 0.49196-0.44373 0.69453-1.5145l2.6624 0.45338q-0.41479 1.8328-1.5916 2.7685t-3.1543 0.93569q-2.2476 0-3.5884-1.418-1.3312-1.418-1.3312-3.926 0-2.537 1.3408-3.9453 1.3408-1.418 3.627-1.418 1.8714 0 2.9711 0.81029 1.1093 0.80064 1.5916 2.4502z"/>
				<path d="m142.53 400.49v2.1608h-1.8521v4.1286q0 1.254 0.0482 1.4662 0.0579 0.20257 0.24116 0.33762 0.19293 0.13504 0.46302 0.13504 0.37621 0 1.09-0.26045l0.23152 2.1029q-0.94534 0.40514-2.1415 0.40514-0.73312 0-1.3215-0.24116-0.58843-0.2508-0.86817-0.63665-0.27009-0.3955-0.3762-1.0611-0.0868-0.47267-0.0868-1.91v-4.4662h-1.2444v-2.1608h1.2444v-2.0354l2.7202-1.582v3.6174z"/>
				<path d="m144.41 399.1v-2.508h2.7106v2.508zm0 11.633v-10.244h2.7106v10.244z"/>
				<path d="m152.72 410.73-4.1286-10.244h2.8457l1.9292 5.2283 0.55949 1.746q0.22186-0.6656 0.27974-0.87782 0.13505-0.43408 0.28939-0.86816l1.9486-5.2283h2.7878l-4.0707 10.244z"/>
				<path d="m160.89 399.1v-2.508h2.7106v2.508zm0 11.633v-10.244h2.7106v10.244z"/>
				<path d="m171.07 400.49v2.1608h-1.8521v4.1286q0 1.254 0.0482 1.4662 0.0579 0.20257 0.24116 0.33762 0.19293 0.13504 0.46302 0.13504 0.37621 0 1.09-0.26045l0.23151 2.1029q-0.94533 0.40514-2.1415 0.40514-0.73312 0-1.3215-0.24116-0.58843-0.2508-0.86817-0.63665-0.2701-0.3955-0.3762-1.0611-0.0868-0.47267-0.0868-1.91v-4.4662h-1.2444v-2.1608h1.2444v-2.0354l2.7202-1.582v3.6174z"/>
				<path d="m172.96 399.1v-2.508h2.7106v2.508zm0 11.633v-10.244h2.7106v10.244z"/>
				<path d="m184.38 407.47 2.701 0.45338q-0.5209 1.4855-1.6495 2.2669-1.119 0.7717-2.8071 0.7717-2.672 0-3.955-1.746-1.0129-1.3987-1.0129-3.5305 0-2.5466 1.3312-3.9839 1.3312-1.4469 3.3666-1.4469 2.2862 0 3.6077 1.5145 1.3215 1.5048 1.2637 4.6206h-6.791q0.0289 1.2058 0.65595 1.881 0.62701 0.66559 1.5627 0.66559 0.63665 0 1.0707-0.34727 0.43408-0.34726 0.65594-1.119zm0.15434-2.7395q-0.0289-1.1768-0.60771-1.7846-0.57878-0.61736-1.4084-0.61736-0.88746 0-1.4662 0.6463-0.57877 0.6463-0.56913 1.7556z"/>
				<path d="m188.48 407.81 2.7203-0.41479q0.17363 0.791 0.70418 1.2058 0.53054 0.40514 1.4855 0.40514 1.0514 0 1.582-0.38585 0.35691-0.27009 0.35691-0.72347 0-0.30868-0.19293-0.51125-0.20257-0.19293-0.90675-0.35692-3.2797-0.72347-4.1576-1.3215-1.2154-0.82958-1.2154-2.3055 0-1.3312 1.0514-2.2379 1.0514-0.90675 3.2604-0.90675 2.1029 0 3.1254 0.68489 1.0225 0.68488 1.4084 2.0257l-2.5563 0.47266q-0.16399-0.59807-0.62701-0.91639-0.45337-0.31833-1.3022-0.31833-1.0707 0-1.5338 0.29903-0.30868 0.21222-0.30868 0.54984 0 0.28939 0.2701 0.49196 0.36656 0.2701 2.5273 0.76206 2.1704 0.49196 3.0289 1.2058 0.84887 0.72347 0.84887 2.0161 0 1.4084-1.1768 2.4212-1.1768 1.0129-3.4823 1.0129-2.0932 0-3.3183-0.84887-1.2154-0.84888-1.5916-2.3055z"/>
			</g>
			<g transform="matrix(.86918 -.49449 1.0075 .57732 0 0)" aria-label="07 Key  Resources">
				<path d="m-55.001 373.74q2.0547 0 3.2122 1.4662 1.3794 1.7363 1.3794 5.7588 0 4.0129-1.3891 5.7685-1.1479 1.4469-3.2026 1.4469-2.0643 0-3.328-1.582-1.2637-1.5916-1.2637-5.6624 0-3.9936 1.3891-5.7492 1.1479-1.4469 3.2026-1.4469zm0 2.2476q-0.49196 0-0.87781 0.31833-0.38585 0.30868-0.59807 1.119-0.27974 1.0514-0.27974 3.5402t0.2508 3.4244q0.2508 0.92605 0.62701 1.2347 0.38585 0.30868 0.87781 0.30868 0.49196 0 0.87781-0.30868 0.38585-0.31833 0.59807-1.1286 0.27974-1.0418 0.27974-3.5305t-0.2508-3.4148q-0.2508-0.93569-0.63666-1.2444-0.3762-0.31833-0.86817-0.31833z"/>
				<path d="m-48.596 376.51v-2.5177h9.2701v1.9678q-1.1479 1.1286-2.3344 3.2412-1.1865 2.1125-1.8135 4.4952-0.61736 2.373-0.60772 4.2444h-2.6141q0.06752-2.9325 1.2058-5.9807 1.1479-3.0482 3.0579-5.4502z"/>
				<path d="m-31.484 387.94v-14.141h2.8553v6.2797l5.7685-6.2797h3.8392l-5.3248 5.508 5.6141 8.6334h-3.6945l-3.8875-6.6366-2.3151 2.3633v4.2733z"/>
				<path d="m-11.342 384.68 2.701 0.45338q-0.5209 1.4855-1.6495 2.2669-1.119 0.77171-2.8071 0.77171-2.672 0-3.955-1.746-1.0129-1.3987-1.0129-3.5305 0-2.5466 1.3312-3.9839 1.3312-1.4469 3.3666-1.4469 2.2862 0 3.6077 1.5145 1.3215 1.5048 1.2637 4.6206h-6.791q0.02894 1.2058 0.65595 1.881 0.62701 0.6656 1.5627 0.6656 0.63666 0 1.0707-0.34727t0.65595-1.119zm0.15434-2.7395q-0.02894-1.1768-0.60772-1.7846-0.57878-0.61736-1.4084-0.61736-0.88746 0-1.4662 0.6463-0.57878 0.6463-0.56913 1.7556z"/>
				<path d="m-7.5706 377.69h2.8842l2.4502 7.2733 2.3923-7.2733h2.8071l-3.6174 9.8585-0.6463 1.7846q-0.35691 0.8971-0.68489 1.3698-0.31833 0.47267-0.74276 0.76206-0.41479 0.29903-1.0322 0.46302-0.60772 0.16399-1.3794 0.16399-0.78135 0-1.5338-0.16399l-0.24116-2.1222q0.63666 0.1254 1.1479 0.1254 0.94534 0 1.3987-0.55949 0.45338-0.54983 0.69453-1.4084z"/>
				<path d="m-53.487 412.63v-14.141h6.0096q2.2669 0 3.2894 0.38585 1.0322 0.3762 1.6495 1.3505 0.61736 0.97427 0.61736 2.2283 0 1.5916-0.93569 2.6334-0.93569 1.0322-2.7974 1.3022 0.92604 0.54019 1.5241 1.1865 0.60772 0.6463 1.6302 2.2958l1.7267 2.7588h-3.4148l-2.0643-3.0772q-1.0997-1.6495-1.5048-2.074-0.40514-0.43408-0.85852-0.58842-0.45338-0.16399-1.4373-0.16399h-0.57878v5.9035zm2.8553-8.1608h2.1125q2.0547 0 2.5659-0.17364 0.51125-0.17363 0.80064-0.59807 0.28939-0.42443 0.28939-1.0611 0-0.71382-0.38585-1.1479-0.37621-0.44373-1.0707-0.55948-0.34727-0.0482-2.0836-0.0482h-2.2283z"/>
				<path d="m-33.317 409.37 2.701 0.45338q-0.5209 1.4855-1.6495 2.2669-1.119 0.77171-2.8071 0.77171-2.672 0-3.955-1.746-1.0129-1.3987-1.0129-3.5305 0-2.5466 1.3312-3.9839 1.3312-1.4469 3.3666-1.4469 2.2862 0 3.6077 1.5145 1.3215 1.5048 1.2637 4.6206h-6.791q0.02894 1.2058 0.65595 1.881 0.62701 0.6656 1.5627 0.6656 0.63666 0 1.0707-0.34727t0.65595-1.119zm0.15434-2.7395q-0.02894-1.1768-0.60772-1.7846-0.57878-0.61736-1.4084-0.61736-0.88746 0-1.4662 0.6463-0.57878 0.6463-0.56913 1.7556z"/>
				<path d="m-29.217 409.71 2.7203-0.41479q0.17363 0.791 0.70418 1.2058 0.53055 0.40514 1.4855 0.40514 1.0514 0 1.582-0.38585 0.35691-0.2701 0.35691-0.72347 0-0.30868-0.19292-0.51126-0.20257-0.19292-0.90675-0.35691-3.2797-0.72347-4.1576-1.3215-1.2154-0.82958-1.2154-2.3055 0-1.3312 1.0514-2.2379 1.0514-0.90675 3.2604-0.90675 2.1029 0 3.1254 0.68488 1.0225 0.68489 1.4084 2.0257l-2.5563 0.47267q-0.16399-0.59807-0.62701-0.91639-0.45338-0.31833-1.3022-0.31833-1.0707 0-1.5338 0.29903-0.30868 0.21222-0.30868 0.54984 0 0.28939 0.2701 0.49196 0.36656 0.2701 2.5273 0.76206 2.1704 0.49196 3.0289 1.2058 0.84887 0.72348 0.84887 2.0161 0 1.4084-1.1768 2.4212-1.1768 1.0129-3.4823 1.0129-2.0932 0-3.3183-0.84888-1.2154-0.84887-1.5916-2.3055z"/>
				<path d="m-17.902 407.36q0-1.3505 0.66559-2.6141 0.66559-1.2637 1.881-1.9293 1.2251-0.66559 2.7299-0.66559 2.3248 0 3.8103 1.5145 1.4855 1.5048 1.4855 3.8103 0 2.3248-1.5048 3.8585-1.4952 1.5241-3.7717 1.5241-1.4084 0-2.6913-0.63666-1.2733-0.63665-1.9389-1.8617-0.66559-1.2347-0.66559-3zm2.7781 0.1447q0 1.5241 0.72347 2.3344 0.72347 0.81029 1.7846 0.81029t1.7749-0.81029q0.72347-0.81029 0.72347-2.3537 0-1.5048-0.72347-2.3151-0.71382-0.81029-1.7749-0.81029t-1.7846 0.81029q-0.72347 0.81028-0.72347 2.3344z"/>
				<path d="m1.5355 412.63v-1.5338q-0.55948 0.81993-1.4759 1.2926-0.90675 0.47267-1.9196 0.47267-1.0322 0-1.8521-0.45338-0.81993-0.45337-1.1865-1.2733-0.36656-0.81993-0.36656-2.2669v-6.4823h2.7106v4.7074q0 2.1608 0.14469 2.6527 0.15434 0.48231 0.54984 0.7717 0.3955 0.27974 1.0032 0.27974 0.69453 0 1.2444-0.3762 0.54984-0.38585 0.75241-0.94534 0.20257-0.56913 0.20257-2.7685v-4.3215h2.7106v10.244z"/>
				<path d="m9.4551 412.63h-2.7106v-10.244h2.5177v1.4566q0.6463-1.0322 1.1576-1.3601 0.5209-0.32797 1.1768-0.32797 0.92604 0 1.7846 0.51125l-0.83923 2.3633q-0.68489-0.44373-1.2733-0.44373-0.56913 0-0.96463 0.31833-0.3955 0.30868-0.62701 1.1286-0.22186 0.81993-0.22186 3.4341z"/>
				<path d="m23.481 405.42-2.672 0.48232q-0.13505-0.80064-0.61736-1.2058-0.47267-0.40514-1.2347-0.40514-1.0129 0-1.6206 0.70418-0.59807 0.69453-0.59807 2.3344 0 1.8232 0.60772 2.5756 0.61736 0.75241 1.6495 0.75241 0.7717 0 1.2637-0.43409 0.49196-0.44372 0.69453-1.5145l2.6624 0.45337q-0.41479 1.8328-1.5916 2.7685t-3.1543 0.93569q-2.2476 0-3.5884-1.418-1.3312-1.418-1.3312-3.926 0-2.537 1.3408-3.9453 1.3408-1.418 3.627-1.418 1.8714 0 2.9711 0.81029 1.1093 0.80064 1.5916 2.4502z"/>
				<path d="m31.468 409.37 2.701 0.45338q-0.5209 1.4855-1.6495 2.2669-1.119 0.77171-2.8071 0.77171-2.672 0-3.955-1.746-1.0129-1.3987-1.0129-3.5305 0-2.5466 1.3312-3.9839 1.3312-1.4469 3.3666-1.4469 2.2862 0 3.6077 1.5145 1.3215 1.5048 1.2637 4.6206h-6.791q0.02894 1.2058 0.65595 1.881 0.62701 0.6656 1.5627 0.6656 0.63666 0 1.0707-0.34727t0.65595-1.119zm0.15434-2.7395q-0.02894-1.1768-0.60772-1.7846-0.57878-0.61736-1.4084-0.61736-0.88746 0-1.4662 0.6463-0.57878 0.6463-0.56913 1.7556z"/>
				<path d="m35.568 409.71 2.7203-0.41479q0.17363 0.791 0.70418 1.2058 0.53055 0.40514 1.4855 0.40514 1.0514 0 1.582-0.38585 0.35691-0.2701 0.35691-0.72347 0-0.30868-0.19293-0.51126-0.20257-0.19292-0.90675-0.35691-3.2797-0.72347-4.1576-1.3215-1.2154-0.82958-1.2154-2.3055 0-1.3312 1.0514-2.2379 1.0514-0.90675 3.2604-0.90675 2.1029 0 3.1254 0.68488 1.0225 0.68489 1.4084 2.0257l-2.5563 0.47267q-0.16399-0.59807-0.62701-0.91639-0.45338-0.31833-1.3022-0.31833-1.0707 0-1.5338 0.29903-0.30868 0.21222-0.30868 0.54984 0 0.28939 0.2701 0.49196 0.36656 0.2701 2.5273 0.76206 2.1704 0.49196 3.0289 1.2058 0.84887 0.72348 0.84887 2.0161 0 1.4084-1.1768 2.4212t-3.4823 1.0129q-2.0932 0-3.3183-0.84888-1.2154-0.84887-1.5916-2.3055z"/>
			</g>
			<g transform="matrix(.86918 -.49449 1.0075 .57732 0 0)" aria-label="08 Key Partners">
				<path d="m-2.2615 253.01q2.0547 0 3.2122 1.4662 1.3794 1.7363 1.3794 5.7588 0 4.0129-1.3891 5.7685-1.1479 1.4469-3.2026 1.4469-2.0643 0-3.328-1.582-1.2637-1.5916-1.2637-5.6624 0-3.9936 1.3891-5.7492 1.1479-1.4469 3.2026-1.4469zm0 2.2476q-0.49196 0-0.87781 0.31832-0.38585 0.30868-0.59807 1.119-0.27974 1.0514-0.27974 3.5402t0.2508 3.4244q0.2508 0.92605 0.62701 1.2347 0.38585 0.30868 0.87781 0.30868 0.49196 0 0.87781-0.30868 0.38585-0.31833 0.59807-1.1286 0.27974-1.0418 0.27974-3.5305t-0.2508-3.4148q-0.2508-0.93569-0.63666-1.2444-0.37621-0.31832-0.86817-0.31832z"/>
				<path d="m6.4684 259.58q-1.0514-0.44373-1.5338-1.2154-0.47267-0.78135-0.47267-1.7074 0-1.582 1.0997-2.6142 1.1093-1.0322 3.1447-1.0322 2.0161 0 3.1254 1.0322 1.119 1.0322 1.119 2.6142 0 0.98392-0.51125 1.7556-0.51125 0.76206-1.4373 1.1672 1.1768 0.47267 1.7846 1.3794 0.61736 0.90675 0.61736 2.0932 0 1.9582-1.254 3.1833-1.2444 1.2251-3.3183 1.2251-1.9293 0-3.2122-1.0129-1.5145-1.1961-1.5145-3.2797 0-1.1479 0.56913-2.1029 0.56913-0.96463 1.7942-1.4855zm0.55948-2.7299q0 0.81029 0.45338 1.2637 0.46302 0.45337 1.2251 0.45337 0.7717 0 1.2347-0.45337 0.46302-0.46302 0.46302-1.2733 0-0.76206-0.46302-1.2154-0.45338-0.46302-1.2058-0.46302-0.78135 0-1.2444 0.46302-0.46302 0.46303-0.46302 1.2251zm-0.2508 6.0579q0 1.119 0.56913 1.746 0.57878 0.62701 1.4373 0.62701 0.83923 0 1.3891-0.59807 0.54984-0.60772 0.54984-1.746 0-0.99357-0.55948-1.5916-0.55949-0.60771-1.418-0.60771-0.99357 0-1.4855 0.68488-0.48231 0.68489-0.48231 1.4855z"/>
				<path d="m21.256 267.21v-14.141h2.8553v6.2797l5.7685-6.2797h3.8392l-5.3248 5.508 5.6141 8.6334h-3.6945l-3.8875-6.6366-2.3151 2.3633v4.2733z"/>
				<path d="m41.398 263.95 2.701 0.45338q-0.5209 1.4855-1.6495 2.2669-1.119 0.7717-2.8071 0.7717-2.672 0-3.955-1.746-1.0129-1.3987-1.0129-3.5305 0-2.5466 1.3312-3.9839 1.3312-1.4469 3.3666-1.4469 2.2862 0 3.6077 1.5145 1.3215 1.5048 1.2637 4.6206h-6.791q0.02894 1.2058 0.65595 1.881 0.62701 0.6656 1.5627 0.6656 0.63666 0 1.0707-0.34727t0.65595-1.119zm0.15434-2.7395q-0.02894-1.1768-0.60772-1.7846-0.57878-0.61736-1.4084-0.61736-0.88746 0-1.4662 0.6463t-0.56913 1.7556z"/>
				<path d="m45.169 256.96h2.8842l2.4502 7.2733 2.3923-7.2733h2.8071l-3.6174 9.8585-0.6463 1.7846q-0.35691 0.8971-0.68489 1.3698-0.31833 0.47267-0.74276 0.76206-0.41479 0.29903-1.0322 0.46302-0.60772 0.16399-1.3794 0.16399-0.78135 0-1.5338-0.16399l-0.24116-2.1222q0.63666 0.1254 1.1479 0.1254 0.94534 0 1.3987-0.55949 0.45338-0.54983 0.69453-1.4084z"/>
				<path d="m62.947 267.21v-14.141h4.582q2.6045 0 3.3955 0.21222 1.2154 0.31832 2.0354 1.3891 0.81993 1.0611 0.81993 2.7492 0 1.3022-0.47267 2.1897t-1.2058 1.3987q-0.72347 0.50161-1.4759 0.6656-1.0225 0.20257-2.9614 0.20257h-1.8617v5.3344zm2.8553-11.749v4.0128h1.5627q1.6881 0 2.2572-0.22186 0.56913-0.22187 0.88746-0.69453 0.32797-0.47267 0.32797-1.0997 0-0.7717-0.45338-1.2733-0.45338-0.50161-1.1479-0.62701-0.51125-0.0965-2.0547-0.0965z"/>
				<path d="m78.131 260.09-2.4598-0.44373q0.41479-1.4855 1.4277-2.1994 1.0129-0.71382 3.0096-0.71382 1.8135 0 2.701 0.43408 0.88746 0.42444 1.2444 1.09 0.36656 0.65595 0.36656 2.4212l-0.02894 3.164q0 1.3505 0.1254 1.9968 0.13505 0.63666 0.49196 1.3698h-2.6817q-0.10611-0.2701-0.26045-0.80064-0.06752-0.24116-0.09646-0.31833-0.69453 0.67524-1.4855 1.0129-0.791 0.33762-1.6881 0.33762-1.582 0-2.4984-0.85852-0.90675-0.85852-0.90675-2.1704 0-0.86816 0.41479-1.5434 0.41479-0.68489 1.1576-1.0418 0.75241-0.36656 2.1608-0.63666 1.9003-0.35691 2.6334-0.66559v-0.2701q0-0.78135-0.38585-1.1093-0.38585-0.33762-1.4566-0.33762-0.72347 0-1.1286 0.28939-0.40514 0.27974-0.65595 0.99357zm3.627 2.1994q-0.5209 0.17363-1.6495 0.41479t-1.4759 0.47267q-0.53055 0.3762-0.53055 0.95498 0 0.56913 0.42444 0.98392 0.42444 0.41479 1.0804 0.41479 0.73312 0 1.3987-0.48231 0.49196-0.36656 0.6463-0.89711 0.10611-0.34726 0.10611-1.3215z"/>
				<path d="m89.687 267.21h-2.7106v-10.244h2.5177v1.4566q0.6463-1.0322 1.1576-1.3601 0.5209-0.32797 1.1768-0.32797 0.92604 0 1.7846 0.51125l-0.83923 2.3633q-0.68489-0.44373-1.2733-0.44373-0.56913 0-0.96463 0.31833-0.3955 0.30868-0.62701 1.1286-0.22186 0.81993-0.22186 3.4341z"/>
				<path d="m99.478 256.96v2.1608h-1.8521v4.1286q0 1.254 0.04823 1.4662 0.05788 0.20258 0.24116 0.33763 0.19293 0.13504 0.46302 0.13504 0.3762 0 1.09-0.26045l0.23151 2.1029q-0.94534 0.40515-2.1415 0.40515-0.73312 0-1.3215-0.24116-0.58842-0.2508-0.86817-0.63665-0.2701-0.3955-0.3762-1.0611-0.08682-0.47266-0.08682-1.91v-4.4662h-1.2444v-2.1608h1.2444v-2.0354l2.7203-1.582v3.6174z"/>
				<path d="m110.68 267.21h-2.7106v-5.2283q0-1.6592-0.17364-2.1415-0.17363-0.49196-0.56913-0.76205-0.38585-0.2701-0.93569-0.2701-0.70418 0-1.2637 0.38585-0.55949 0.38585-0.7717 1.0225-0.20258 0.63665-0.20258 2.3537v4.6399h-2.7106v-10.244h2.5177v1.5048q1.3408-1.7363 3.3762-1.7363 0.8971 0 1.6399 0.32797 0.74276 0.31833 1.119 0.81994 0.38585 0.5016 0.53054 1.1383 0.15434 0.63665 0.15434 1.8232z"/>
				<path d="m119.36 263.95 2.701 0.45338q-0.5209 1.4855-1.6495 2.2669-1.119 0.7717-2.8071 0.7717-2.672 0-3.955-1.746-1.0129-1.3987-1.0129-3.5305 0-2.5466 1.3312-3.9839 1.3312-1.4469 3.3666-1.4469 2.2862 0 3.6077 1.5145 1.3215 1.5048 1.2637 4.6206h-6.791q0.0289 1.2058 0.65595 1.881 0.62701 0.6656 1.5627 0.6656 0.63665 0 1.0707-0.34727 0.43409-0.34727 0.65595-1.119zm0.15434-2.7395q-0.0289-1.1768-0.60771-1.7846-0.57878-0.61736-1.4084-0.61736-0.88746 0-1.4662 0.6463t-0.56913 1.7556z"/>
				<path d="m127.01 267.21h-2.7106v-10.244h2.5177v1.4566q0.6463-1.0322 1.1576-1.3601 0.5209-0.32797 1.1768-0.32797 0.92604 0 1.7846 0.51125l-0.83922 2.3633q-0.68489-0.44373-1.2733-0.44373-0.56913 0-0.96463 0.31833-0.3955 0.30868-0.62701 1.1286-0.22187 0.81993-0.22187 3.4341z"/>
				<path d="m131.15 264.28 2.7202-0.41479q0.17363 0.791 0.70418 1.2058 0.53054 0.40514 1.4855 0.40514 1.0514 0 1.582-0.38585 0.35691-0.2701 0.35691-0.72347 0-0.30868-0.19293-0.51125-0.20257-0.19293-0.90675-0.35692-3.2797-0.72347-4.1576-1.3215-1.2154-0.82958-1.2154-2.3055 0-1.3312 1.0514-2.2379 1.0514-0.90675 3.2604-0.90675 2.1029 0 3.1254 0.68488 1.0225 0.68489 1.4084 2.0257l-2.5563 0.47267q-0.16399-0.59807-0.62701-0.91639-0.45337-0.31833-1.3022-0.31833-1.0707 0-1.5338 0.29903-0.30868 0.21222-0.30868 0.54984 0 0.28939 0.2701 0.49196 0.36656 0.2701 2.5273 0.76206 2.1704 0.49196 3.0289 1.2058 0.84887 0.72347 0.84887 2.0161 0 1.4084-1.1768 2.4212-1.1768 1.0129-3.4823 1.0129-2.0932 0-3.3183-0.84888-1.2154-0.84887-1.5916-2.3055z"/>
			</g>
			<g transform="matrix(.86918 -.49449 1.0075 .57732 0 0)" aria-label="09 Cost  Structure">
				<path d="m-209.91 341.99q2.0547 0 3.2122 1.4662 1.3794 1.7363 1.3794 5.7588 0 4.0129-1.3891 5.7685-1.1479 1.447-3.2026 1.447-2.0643 0-3.328-1.582-1.2637-1.5916-1.2637-5.6624 0-3.9936 1.3891-5.7492 1.1479-1.447 3.2026-1.447zm0 2.2476q-0.49196 0-0.87781 0.31833-0.38585 0.30868-0.59807 1.119-0.27974 1.0514-0.27974 3.5402 0 2.4888 0.2508 3.4244 0.25081 0.92604 0.62701 1.2347 0.38585 0.30868 0.87781 0.30868t0.87782-0.30868q0.38585-0.31833 0.59807-1.1286 0.27974-1.0418 0.27974-3.5306 0-2.4887-0.25081-3.4148-0.2508-0.93569-0.63665-1.2444-0.37621-0.31833-0.86817-0.31833z"/>
				<path d="m-203.44 352.92 2.6238-0.28939q0.0965 0.80064 0.5016 1.1865 0.40515 0.38585 1.0707 0.38585 0.83923 0 1.4276-0.7717 0.58843-0.7717 0.75241-3.2026-1.0225 1.1865-2.5563 1.1865-1.6688 0-2.8842-1.283-1.2058-1.2926-1.2058-3.3569 0-2.1511 1.2733-3.463 1.283-1.3215 3.2604-1.3215 2.1511 0 3.5305 1.6688 1.3794 1.6592 1.3794 5.4694 0 3.8778-1.4373 5.5948t-3.7428 1.717q-1.6592 0-2.6817-0.87781-1.0225-0.88746-1.3119-2.6431zm6.135-5.9228q0-1.3119-0.60772-2.0354-0.59807-0.72347-1.3891-0.72347-0.75242 0-1.254 0.59807-0.49196 0.58842-0.49196 1.9389 0 1.3698 0.54019 2.0161 0.54019 0.63665 1.3505 0.63665 0.78135 0 1.3119-0.61736 0.5402-0.61736 0.5402-1.8135z"/>
				<path d="m-177.38 350.99 2.7685 0.87781q-0.63666 2.3151-2.1222 3.4437-1.4759 1.119-3.7524 1.119-2.8167 0-4.6302-1.9196-1.8135-1.9293-1.8135-5.2669 0-3.5305 1.8231-5.4791 1.8232-1.9582 4.7942-1.9582 2.5948 0 4.2154 1.5338 0.96463 0.90675 1.4469 2.6045l-2.8264 0.67524q-0.25081-1.0997-1.0514-1.7363-0.79099-0.63666-1.9293-0.63666-1.5723 0-2.5563 1.1286-0.97428 1.1286-0.97428 3.6559 0 2.6817 0.96463 3.8199 0.96463 1.1383 2.508 1.1383 1.1383 0 1.9582-0.72348 0.81994-0.72347 1.1768-2.2765z"/>
				<path d="m-172.81 350.93q0-1.3505 0.6656-2.6142 0.66559-1.2637 1.881-1.9293 1.2251-0.66559 2.7299-0.66559 2.3248 0 3.8103 1.5145 1.4855 1.5048 1.4855 3.8103 0 2.3248-1.5048 3.8585-1.4952 1.5241-3.7717 1.5241-1.4084 0-2.6913-0.63665-1.2733-0.63666-1.9389-1.8617-0.6656-1.2347-0.6656-3zm2.7781 0.14469q0 1.5241 0.72347 2.3344 0.72348 0.81029 1.7846 0.81029t1.7749-0.81029q0.72347-0.81029 0.72347-2.3537 0-1.5048-0.72347-2.3151-0.71383-0.81029-1.7749-0.81029t-1.7846 0.81029q-0.72347 0.81029-0.72347 2.3344z"/>
				<path d="m-161.07 353.27 2.7202-0.41479q0.17363 0.791 0.70418 1.2058 0.53055 0.40514 1.4855 0.40514 1.0514 0 1.582-0.38585 0.35691-0.27009 0.35691-0.72347 0-0.30868-0.19292-0.51125-0.20258-0.19293-0.90676-0.35691-3.2797-0.72348-4.1576-1.3216-1.2154-0.82958-1.2154-2.3055 0-1.3312 1.0514-2.2379 1.0514-0.90675 3.2604-0.90675 2.1029 0 3.1254 0.68489 1.0225 0.68488 1.4084 2.0257l-2.5563 0.47267q-0.16398-0.59807-0.62701-0.9164-0.45337-0.31833-1.3022-0.31833-1.0707 0-1.5338 0.29904-0.30868 0.21221-0.30868 0.54983 0 0.28939 0.2701 0.49196 0.36656 0.2701 2.5273 0.76206 2.1704 0.49196 3.0289 1.2058 0.84888 0.72347 0.84888 2.0161 0 1.4084-1.1768 2.4212t-3.4823 1.0129q-2.0932 0-3.3183-0.84887-1.2154-0.84888-1.5916-2.3055z"/>
				<path d="m-144.43 345.95v2.1608h-1.8521v4.1286q0 1.254 0.0482 1.4662 0.0579 0.20257 0.24115 0.33762 0.19293 0.13505 0.46303 0.13505 0.3762 0 1.09-0.26045l0.23151 2.1029q-0.94534 0.40514-2.1415 0.40514-0.73312 0-1.3215-0.24116-0.58842-0.2508-0.86817-0.63665-0.27009-0.3955-0.3762-1.0611-0.0868-0.47267-0.0868-1.91v-4.4662h-1.2444v-2.1608h1.2444v-2.0354l2.7203-1.582v3.6174z"/>
				<path d="m-209.12 376.29 2.7781-0.2701q0.25081 1.3987 1.0129 2.0547 0.77171 0.65595 2.074 0.65595 1.3794 0 2.074-0.57878 0.70418-0.58842 0.70418-1.3698 0-0.50161-0.29904-0.84887-0.28939-0.35692-1.0225-0.61736-0.50161-0.17364-2.2862-0.61737-2.2958-0.56913-3.2219-1.3987-1.3022-1.1672-1.3022-2.8456 0-1.0804 0.60771-2.0161 0.61736-0.94534 1.7653-1.4373 1.1576-0.49196 2.7878-0.49196 2.6624 0 4.0032 1.1672 1.3505 1.1672 1.418 3.1158l-2.8553 0.1254q-0.18328-1.09-0.79099-1.5627-0.59807-0.48232-1.8039-0.48232-1.2444 0-1.9486 0.51126-0.45337 0.32797-0.45337 0.87781 0 0.50161 0.42443 0.85852 0.54019 0.45337 2.6238 0.94534 2.0836 0.49196 3.0772 1.0225 1.0032 0.5209 1.5627 1.4373 0.56913 0.90675 0.56913 2.2476 0 1.2154-0.67524 2.2765t-1.91 1.582q-1.2347 0.51125-3.0772 0.51125-2.6817 0-4.119-1.2347-1.4373-1.2444-1.717-3.6174z"/>
				<path d="m-190.55 370.64v2.1608h-1.8521v4.1286q0 1.254 0.0482 1.4662 0.0579 0.20257 0.24116 0.33762 0.19292 0.13505 0.46302 0.13505 0.3762 0 1.09-0.26045l0.23151 2.1029q-0.94534 0.40514-2.1415 0.40514-0.73311 0-1.3215-0.24116-0.58842-0.2508-0.86816-0.63665-0.2701-0.3955-0.37621-1.0611-0.0868-0.47267-0.0868-1.91v-4.4662h-1.2444v-2.1608h1.2444v-2.0354l2.7203-1.582v3.6174z"/>
				<path d="m-186.07 380.89h-2.7106v-10.244h2.5177v1.4566q0.6463-1.0322 1.1576-1.3601 0.5209-0.32797 1.1768-0.32797 0.92604 0 1.7846 0.51125l-0.83922 2.3633q-0.68489-0.44372-1.2733-0.44372-0.56913 0-0.96463 0.31832-0.3955 0.30868-0.62701 1.1286-0.22187 0.81993-0.22187 3.4341z"/>
				<path d="m-174.23 380.89v-1.5338q-0.55948 0.81993-1.4759 1.2926-0.90675 0.47267-1.9196 0.47267-1.0322 0-1.8521-0.45337-0.81994-0.45338-1.1865-1.2733-0.36655-0.81994-0.36655-2.2669v-6.4823h2.7106v4.7074q0 2.1608 0.1447 2.6527 0.15434 0.48231 0.54984 0.7717 0.39549 0.27975 1.0032 0.27975 0.69453 0 1.2444-0.37621 0.54984-0.38585 0.75241-0.94534 0.20257-0.56913 0.20257-2.7685v-4.3215h2.7106v10.244z"/>
				<path d="m-159.98 373.67-2.672 0.48231q-0.13504-0.80064-0.61736-1.2058-0.47267-0.40514-1.2347-0.40514-1.0129 0-1.6206 0.70418-0.59807 0.69453-0.59807 2.3344 0 1.8232 0.60772 2.5756 0.61736 0.75241 1.6495 0.75241 0.7717 0 1.2637-0.43408 0.49196-0.44373 0.69453-1.5145l2.6624 0.45338q-0.41479 1.8328-1.5916 2.7685-1.1768 0.93569-3.1543 0.93569-2.2476 0-3.5884-1.418-1.3312-1.418-1.3312-3.926 0-2.537 1.3408-3.9453 1.3408-1.418 3.627-1.418 1.8714 0 2.9711 0.81029 1.1093 0.80064 1.5916 2.4502z"/>
				<path d="m-153.22 370.64v2.1608h-1.8521v4.1286q0 1.254 0.0482 1.4662 0.0579 0.20257 0.24116 0.33762 0.19292 0.13505 0.46302 0.13505 0.37621 0 1.09-0.26045l0.23151 2.1029q-0.94533 0.40514-2.1415 0.40514-0.73312 0-1.3216-0.24116-0.58842-0.2508-0.86816-0.63665-0.2701-0.3955-0.37621-1.0611-0.0868-0.47267-0.0868-1.91v-4.4662h-1.2444v-2.1608h1.2444v-2.0354l2.7202-1.582v3.6174z"/>
				<path d="m-144.6 380.89v-1.5338q-0.55949 0.81993-1.4759 1.2926-0.90675 0.47267-1.9196 0.47267-1.0322 0-1.8521-0.45337-0.81994-0.45338-1.1865-1.2733-0.36655-0.81994-0.36655-2.2669v-6.4823h2.7106v4.7074q0 2.1608 0.1447 2.6527 0.15434 0.48231 0.54984 0.7717 0.39549 0.27975 1.0032 0.27975 0.69453 0 1.2444-0.37621 0.54984-0.38585 0.75241-0.94534 0.20257-0.56913 0.20257-2.7685v-4.3215h2.7106v10.244z"/>
				<path d="m-136.68 380.89h-2.7106v-10.244h2.5177v1.4566q0.6463-1.0322 1.1576-1.3601 0.5209-0.32797 1.1768-0.32797 0.92604 0 1.7846 0.51125l-0.83922 2.3633q-0.68489-0.44372-1.2733-0.44372-0.56913 0-0.96463 0.31832-0.3955 0.30868-0.62701 1.1286-0.22187 0.81993-0.22187 3.4341z"/>
				<path d="m-125.66 377.63 2.701 0.45338q-0.5209 1.4855-1.6495 2.2669-1.119 0.7717-2.8071 0.7717-2.672 0-3.955-1.746-1.0129-1.3987-1.0129-3.5305 0-2.5466 1.3312-3.9839 1.3312-1.4469 3.3666-1.4469 2.2862 0 3.6077 1.5145 1.3215 1.5048 1.2637 4.6206h-6.791q0.0289 1.2058 0.65595 1.881 0.62701 0.66559 1.5627 0.66559 0.63665 0 1.0707-0.34727 0.43408-0.34726 0.65595-1.119zm0.15434-2.7395q-0.0289-1.1768-0.60772-1.7846-0.57878-0.61736-1.4084-0.61736-0.88746 0-1.4662 0.6463-0.57878 0.64631-0.56914 1.7556z"/>
			</g>
		</g>
	</g>
	<animate xlink:href="#CR" attributeName="fill" from="#1E90FF" to="purple" dur="0.8s" begin="cr.mouseover" end="cr.mouseout" id="m-anim" fill="freeze"/>
	<animate xlink:href="#CS" attributeName="fill" from="#1E90FF" to="purple" dur="0.8s" begin="cs.mouseover" end="cs.mouseout" id="m-anim" fill="freeze"/>
</svg>
